<svg width="20" height="20" viewBox="0 0 20 20" xmlns="http://www.w3.org/2000/svg">
<path d="M7.0491 6.90831C6.89218 6.74697 6.6776 6.65457 6.45255 6.65145C6.22751 6.64832 6.01044 6.73472 5.8491 6.89164C5.68776 7.04856 5.59537 7.26315 5.59224 7.48819C5.58912 7.71324 5.67552 7.9303 5.83244 8.09164L7.78244 9.99998L5.83244 11.9083C5.75433 11.9858 5.69233 12.0779 5.65003 12.1795C5.60772 12.281 5.58594 12.39 5.58594 12.5C5.58594 12.61 5.60772 12.7189 5.65003 12.8205C5.69233 12.922 5.75433 13.0142 5.83244 13.0916C5.90991 13.1698 6.00207 13.2317 6.10362 13.2741C6.20517 13.3164 6.31409 13.3381 6.4241 13.3381C6.53411 13.3381 6.64303 13.3164 6.74458 13.2741C6.84613 13.2317 6.9383 13.1698 7.01577 13.0916L9.51577 10.5916C9.59388 10.5142 9.65587 10.422 9.69818 10.3205C9.74049 10.2189 9.76227 10.11 9.76227 9.99998C9.76227 9.88997 9.74049 9.78105 9.69818 9.6795C9.65587 9.57795 9.59388 9.48578 9.51577 9.40831L7.0491 6.90831ZM14.1324 9.40831L11.6324 6.90831C11.4755 6.75139 11.2627 6.66323 11.0408 6.66323C10.8189 6.66323 10.606 6.75139 10.4491 6.90831C10.2922 7.06523 10.204 7.27806 10.204 7.49998C10.204 7.7219 10.2922 7.93472 10.4491 8.09164L12.3658 9.99998L10.4491 11.9083C10.371 11.9858 10.309 12.0779 10.2667 12.1795C10.2244 12.281 10.2026 12.39 10.2026 12.5C10.2026 12.61 10.2244 12.7189 10.2667 12.8205C10.309 12.922 10.371 13.0142 10.4491 13.0916C10.5266 13.1698 10.6187 13.2317 10.7203 13.2741C10.8218 13.3164 10.9308 13.3381 11.0408 13.3381C11.1508 13.3381 11.2597 13.3164 11.3612 13.2741C11.4628 13.2317 11.555 13.1698 11.6324 13.0916L14.1324 10.5916C14.2128 10.5164 14.2774 10.426 14.3226 10.3256C14.3678 10.2253 14.3926 10.1169 14.3957 10.0069C14.3988 9.8969 14.3801 9.78736 14.3406 9.68461C14.3012 9.58187 14.2417 9.48796 14.1658 9.40831H14.1324Z" fill="currentColor"/>
</svg>
