<svg width="16" height="31" viewBox="0 0 16 31" xmlns="http://www.w3.org/2000/svg">
<path d="M9.16177 29.6132L15.3676 23.2817C16.0076 22.6272 16.0076 21.5741 15.3634 20.922C14.7191 20.272 13.6802 20.2741 13.0402 20.9263L9.64177 24.3931V2.40188C9.64177 1.48092 8.90577 0.733398 7.99697 0.733398C7.09031 0.733398 6.35644 1.48092 6.35644 2.40188V24.3931L2.9559 20.9263C2.3159 20.2741 1.27697 20.272 0.632703 20.922C0.310569 21.2492 0.148438 21.6759 0.148438 22.1051C0.148438 22.5297 0.310572 22.9565 0.628438 23.2817L6.83431 29.6132C7.14364 29.9274 7.56177 30.1051 7.99697 30.1051C8.43431 30.1051 8.85244 29.9274 9.16177 29.6132Z" fill="currentColor"/>
</svg>
