<svg width="20" height="20" viewBox="0 0 20 20" xmlns="http://www.w3.org/2000/svg">
<path d="M6.90833 5.24167C6.55833 5.24167 6.28333 4.95833 6.28333 4.61667V2.29167C6.28333 1.95 6.55833 1.66667 6.90833 1.66667C7.25833 1.66667 7.53333 1.95 7.53333 2.29167V4.60834C7.53333 4.95833 7.25833 5.24167 6.90833 5.24167Z" fill="currentColor"/>
<path d="M13.0917 5.24167C12.7417 5.24167 12.4667 4.95833 12.4667 4.61667V2.29167C12.4667 1.94167 12.75 1.66667 13.0917 1.66667C13.4417 1.66667 13.7167 1.95 13.7167 2.29167V4.60834C13.7167 4.95833 13.4417 5.24167 13.0917 5.24167Z" fill="currentColor"/>
<path d="M16.3083 3.75C15.7583 3.34167 14.9667 3.73333 14.9667 4.425V4.50833C14.9667 5.48333 14.2667 6.38333 13.2917 6.48333C12.1667 6.6 11.2167 5.71667 11.2167 4.61667V3.75C11.2167 3.29167 10.8417 2.91667 10.3833 2.91667H9.61668C9.15834 2.91667 8.78334 3.29167 8.78334 3.75V4.61667C8.78334 5.275 8.44168 5.85833 7.92501 6.18333C7.85001 6.23333 7.76668 6.275 7.68334 6.31667C7.60834 6.35833 7.52501 6.39167 7.43334 6.41667C7.33334 6.45 7.22501 6.475 7.10834 6.48333C6.97501 6.5 6.84168 6.5 6.70834 6.48333C6.59168 6.475 6.48334 6.45 6.38334 6.41667C6.30001 6.39167 6.21668 6.35833 6.13334 6.31667C6.05001 6.275 5.96668 6.23333 5.89168 6.18333C5.36668 5.81667 5.03334 5.18333 5.03334 4.50833V4.425C5.03334 3.78333 4.35001 3.4 3.80834 3.675C3.80001 3.68333 3.79168 3.68333 3.78334 3.69167C3.75001 3.70833 3.72501 3.725 3.69168 3.75C3.66668 3.775 3.63334 3.79167 3.60834 3.81667C3.37501 4 3.16668 4.20833 2.99168 4.43333C2.90001 4.53333 2.82501 4.64167 2.75834 4.75C2.75001 4.75833 2.74168 4.76667 2.73334 4.78333C2.65834 4.89167 2.59168 5.01667 2.53334 5.13333C2.51668 5.15 2.50834 5.15833 2.50834 5.175C2.45834 5.275 2.40834 5.375 2.37501 5.48333C2.35001 5.525 2.34168 5.55833 2.32501 5.6C2.27501 5.725 2.24168 5.85 2.20834 5.975C2.17501 6.09167 2.15001 6.21667 2.13334 6.34167C2.11668 6.43333 2.10834 6.525 2.10001 6.625C2.09168 6.74167 2.08334 6.85833 2.08334 6.975V14.275C2.08334 16.5167 3.90001 18.3333 6.14168 18.3333H13.8583C16.1 18.3333 17.9167 16.5167 17.9167 14.275V6.975C17.9167 5.65 17.2833 4.49167 16.3083 3.75ZM10 13.5417H8.59168V15C8.59168 15.3417 8.30834 15.625 7.96668 15.625C7.61668 15.625 7.34168 15.3417 7.34168 15V13.5417H5.83334C5.49168 13.5417 5.20834 13.2583 5.20834 12.9167C5.20834 12.575 5.49168 12.2917 5.83334 12.2917H7.34168V10.8333C7.34168 10.4917 7.61668 10.2083 7.96668 10.2083C8.30834 10.2083 8.59168 10.4917 8.59168 10.8333V12.2917H10C10.3417 12.2917 10.625 12.575 10.625 12.9167C10.625 13.2583 10.3417 13.5417 10 13.5417Z" fill="currentColor"/>
</svg>
