<svg width="40" height="40" viewBox="0 0 40 40" xmlns="http://www.w3.org/2000/svg">
<path d="M20.0002 3.3335C10.8335 3.3335 3.3335 10.8335 3.3335 20.0002C3.3335 29.1668 10.8335 36.6668 20.0002 36.6668C29.1668 36.6668 36.6668 29.1668 36.6668 20.0002C36.6668 10.8335 29.1668 3.3335 20.0002 3.3335ZM26.1668 23.8335C26.8335 24.5002 26.8335 25.5002 26.1668 26.1668C25.5002 26.8335 24.5002 26.8335 23.8335 26.1668L20.0002 22.3335L16.1668 26.1668C15.5002 26.8335 14.5002 26.8335 13.8335 26.1668C13.1668 25.5002 13.1668 24.5002 13.8335 23.8335L17.6668 20.0002L13.8335 16.1668C13.1668 15.5002 13.1668 14.5002 13.8335 13.8335C14.5002 13.1668 15.5002 13.1668 16.1668 13.8335L20.0002 17.6668L23.8335 13.8335C24.5002 13.1668 25.5002 13.1668 26.1668 13.8335C26.8335 14.5002 26.8335 15.5002 26.1668 16.1668L22.3335 20.0002L26.1668 23.8335Z" fill="currentColor"/>
</svg>
