<svg width="20" height="20" viewBox="0 0 20 20" xmlns="http://www.w3.org/2000/svg">
<path fill-rule="evenodd" clip-rule="evenodd" d="M13.8349 12.5417L10.0016 16.3751L6.16828 12.5417C5.60335 11.9768 5.17061 11.2937 4.90117 10.5415C4.63172 9.78938 4.53226 8.98688 4.60994 8.19172C4.68813 7.38431 4.94475 6.60435 5.36125 5.90826C5.77776 5.21216 6.34374 4.61731 7.01828 4.16672C7.9024 3.57942 8.9402 3.26613 10.0016 3.26613C11.063 3.26613 12.1008 3.57942 12.9849 4.16672C13.6574 4.61557 14.2222 5.20779 14.6386 5.90084C15.055 6.59388 15.3127 7.37055 15.3933 8.17505C15.4735 8.97291 15.3753 9.77862 15.1058 10.5338C14.8362 11.2891 14.4022 11.9749 13.8349 12.5417ZM7.91822 5.63204C8.53491 5.21999 9.25993 5.00005 10.0016 5.00005C10.9955 5.00226 11.948 5.39805 12.6508 6.10083C13.3536 6.80362 13.7494 7.75617 13.7516 8.75005C13.7516 9.49173 13.5317 10.2168 13.1196 10.8334C12.7076 11.4501 12.1219 11.9308 11.4367 12.2146C10.7515 12.4984 9.99745 12.5727 9.27002 12.428C8.54259 12.2833 7.87441 11.9262 7.34996 11.4017C6.82551 10.8773 6.46836 10.2091 6.32367 9.48164C6.17897 8.75421 6.25323 8.00021 6.53706 7.31499C6.82089 6.62977 7.30154 6.0441 7.91822 5.63204Z" fill="currentColor"/>
<path fill-rule="evenodd" clip-rule="evenodd" d="M15.8026 4.63907C16.5043 5.64096 16.9346 6.80748 17.0516 8.02505C17.1537 9.06643 17.0227 10.1175 16.6681 11.1019C16.3136 12.0864 15.7443 12.9796 15.0016 13.7167L10.6016 18.1417C10.5241 18.2198 10.432 18.2818 10.3304 18.3241C10.2289 18.3664 10.12 18.3882 10.0099 18.3882C9.89993 18.3882 9.79101 18.3664 9.68946 18.3241C9.58791 18.2818 9.49575 18.2198 9.41828 18.1417L5.00161 13.7167C4.25894 12.9796 3.68967 12.0864 3.33509 11.1019C2.9805 10.1175 2.84951 9.06643 2.95161 8.02505C3.05569 6.97681 3.39064 5.96462 3.9324 5.06121C4.47415 4.1578 5.20927 3.38559 6.08494 2.80005C7.10422 2.12385 8.28123 1.72313 9.50137 1.63689C10.7215 1.55065 11.9432 1.78185 13.0474 2.30796C14.1517 2.83408 15.1009 3.63718 15.8026 4.63907ZM10.0016 16.3751L13.8349 12.5417C14.4022 11.9749 14.8362 11.2891 15.1058 10.5338C15.3753 9.77862 15.4735 8.97291 15.3933 8.17505C15.3127 7.37055 15.055 6.59388 14.6386 5.90084C14.2222 5.20779 13.6574 4.61557 12.9849 4.16672C12.1008 3.57942 11.063 3.26613 10.0016 3.26613C8.9402 3.26613 7.9024 3.57942 7.01828 4.16672C6.34374 4.61731 5.77776 5.21216 5.36125 5.90826C4.94475 6.60435 4.68813 7.38431 4.60994 8.19172C4.53226 8.98688 4.63172 9.78938 4.90117 10.5415C5.17061 11.2937 5.60335 11.9768 6.16828 12.5417L10.0016 16.3751Z" fill="currentColor"/>
</svg>
