<svg width="40" height="40" viewBox="0 0 40 40" xmlns="http://www.w3.org/2000/svg">
<path d="M29.8667 11.0333C29.6976 10.6261 29.3739 10.3025 28.9667 10.1333C28.7663 10.0479 28.5511 10.0026 28.3334 10H11.6667C11.2247 10 10.8007 10.1756 10.4882 10.4882C10.1756 10.8007 10 11.2246 10 11.6667C10 12.1087 10.1756 12.5326 10.4882 12.8452C10.8007 13.1577 11.2247 13.3333 11.6667 13.3333H24.3167L10.4834 27.15C10.3271 27.3049 10.2031 27.4893 10.1185 27.6924C10.0339 27.8955 9.99036 28.1133 9.99036 28.3333C9.99036 28.5534 10.0339 28.7712 10.1185 28.9743C10.2031 29.1774 10.3271 29.3617 10.4834 29.5167C10.6383 29.6729 10.8226 29.7969 11.0257 29.8815C11.2288 29.9661 11.4467 30.0097 11.6667 30.0097C11.8867 30.0097 12.1045 29.9661 12.3076 29.8815C12.5107 29.7969 12.6951 29.6729 12.85 29.5167L26.6667 15.6833V28.3333C26.6667 28.7754 26.8423 29.1993 27.1548 29.5118C27.4674 29.8244 27.8913 30 28.3334 30C28.7754 30 29.1993 29.8244 29.5119 29.5118C29.8244 29.1993 30 28.7754 30 28.3333V11.6667C29.9974 11.4489 29.9521 11.2337 29.8667 11.0333Z" fill="currentColor"/>
</svg>
