<svg width="180" height="180" viewBox="0 0 180 180" xmlns="http://www.w3.org/2000/svg">
<circle cx="90" cy="90" r="88" stroke="currentColor" stroke-width="4" fill="none"/>
<path d="M108.351 82.4997L84.2005 68.6497C82.8937 67.8951 81.4105 67.4998 79.9015 67.5039C78.3925 67.5081 76.9115 67.9115 75.6089 68.6733C74.3062 69.4351 73.2284 70.528 72.4849 71.8411C71.7414 73.1543 71.3586 74.6408 71.3755 76.1497V103.95C71.3755 106.217 72.2763 108.392 73.8798 109.995C75.4832 111.599 77.6579 112.5 79.9255 112.5C81.4266 112.497 82.9008 112.101 84.2005 111.35L108.351 97.4997C109.648 96.7487 110.726 95.6696 111.474 94.3708C112.223 93.072 112.618 91.599 112.618 90.0997C112.618 88.6004 112.223 87.1274 111.474 85.8286C110.726 84.5298 109.648 83.4507 108.351 82.6997V82.4997ZM105.851 92.9747L81.7005 107.025C81.1593 107.331 80.5477 107.493 79.9255 107.493C79.3034 107.493 78.6918 107.331 78.1505 107.025C77.6108 106.713 77.1626 106.265 76.851 105.725C76.5394 105.185 76.3754 104.573 76.3755 103.95V76.0497C76.3754 75.4264 76.5394 74.8141 76.851 74.2744C77.1626 73.7346 77.6108 73.2863 78.1505 72.9747C78.6941 72.6726 79.3038 72.5094 79.9255 72.4997C80.5469 72.5125 81.1559 72.6754 81.7005 72.9747L105.851 86.9247C106.39 87.2362 106.839 87.6844 107.151 88.2242C107.462 88.764 107.627 89.3763 107.627 89.9997C107.627 90.6231 107.462 91.2354 107.151 91.7752C106.839 92.315 106.39 92.7632 105.851 93.0747V92.9747Z" fill="currentColor"/>
<path d="M105.851 92.9747L81.7005 107.025C81.1593 107.331 80.5477 107.493 79.9255 107.493C79.3034 107.493 78.6918 107.331 78.1505 107.025C77.6108 106.713 77.1626 106.265 76.851 105.725C76.5394 105.185 76.3754 104.573 76.3755 103.95V76.0497C76.3754 75.4264 76.5394 74.8141 76.851 74.2744C77.1626 73.7346 77.6108 73.2863 78.1505 72.9747C78.6941 72.6726 79.3038 72.5094 79.9255 72.4997C80.5469 72.5125 81.1559 72.6754 81.7005 72.9747L105.851 86.9247C106.39 87.2362 106.839 87.6844 107.151 88.2242C107.462 88.764 107.627 89.3763 107.627 89.9997C107.627 90.6231 107.462 91.2354 107.151 91.7752C106.839 92.315 106.39 92.7632 105.851 93.0747V92.9747Z" fill="currentColor"/>
</svg>
