<svg width="64" height="64" viewBox="0 0 64 64" fill="none" xmlns="http://www.w3.org/2000/svg">
<path opacity="0.4" d="M43.8459 21.9651C49.0747 21.9651 53.3307 26.3593 53.3307 31.7601V42.4957C53.3307 47.8834 49.0854 52.2665 43.8673 52.2665H20.1531C14.9222 52.2665 10.6641 47.8744 10.6641 42.4737V31.7381C10.6641 26.3506 14.9115 21.9651 20.1318 21.9651H22.1371H43.8459Z" fill="#9DAECF"/>
<path d="M33.1618 40.6132L39.3676 34.2817C40.0076 33.6272 40.0076 32.5741 39.3634 31.922C38.7191 31.272 37.6802 31.2741 37.0402 31.9263L33.6418 35.3931V13.4019C33.6418 12.4809 32.9058 11.7334 31.997 11.7334C31.0903 11.7334 30.3564 12.4809 30.3564 13.4019V35.3931L26.9559 31.9263C26.3159 31.2741 25.277 31.272 24.6327 31.922C24.3106 32.2492 24.1484 32.6759 24.1484 33.1051C24.1484 33.5297 24.3106 33.9565 24.6284 34.2817L30.8343 40.6132C31.1436 40.9274 31.5618 41.1051 31.997 41.1051C32.4343 41.1051 32.8524 40.9274 33.1618 40.6132Z" fill="#3A5FA6"/>
</svg>
