<svg width="64" height="64" viewBox="0 0 64 64" fill="none" xmlns="http://www.w3.org/2000/svg">
<path d="M46.7467 20.72C46.56 20.6934 46.3733 20.6934 46.1866 20.72C42.0533 20.5867 38.7733 17.2 38.7733 13.04C38.7733 8.80004 42.2133 5.33337 46.48 5.33337C50.72 5.33337 54.1866 8.77337 54.1866 13.04C54.16 17.2 50.88 20.5867 46.7467 20.72Z" fill="white"/>
<path d="M55.439 39.2C52.4523 41.2 48.2656 41.9466 44.399 41.44C45.4123 39.2533 45.9456 36.8266 45.9723 34.2666C45.9723 31.6 45.3856 29.0666 44.2656 26.8533C48.2123 26.32 52.399 27.0666 55.4123 29.0666C59.6256 31.84 59.6256 36.4 55.439 39.2Z" fill="white"/>
<path d="M17.1751 20.7199C17.3617 20.6933 17.5484 20.6933 17.7351 20.7199C21.8684 20.5866 25.1484 17.1999 25.1484 13.0399C25.1484 8.77325 21.7084 5.33325 17.4417 5.33325C13.2017 5.33325 9.76172 8.77325 9.76172 13.0399C9.76172 17.1999 13.0417 20.5866 17.1751 20.7199Z" fill="white"/>
<path d="M17.467 34.2667C17.467 36.8533 18.027 39.3067 19.0403 41.52C15.2803 41.92 11.3603 41.12 8.48031 39.2267C4.26698 36.4267 4.26698 31.8667 8.48031 29.0667C11.3336 27.1467 15.3603 26.3733 19.147 26.8C18.0536 29.04 17.467 31.5733 17.467 34.2667Z" fill="white"/>
<path d="M32.3208 42.32C32.1074 42.2933 31.8674 42.2933 31.6274 42.32C26.7208 42.16 22.8008 38.1333 22.8008 33.1733C22.8274 28.1067 26.9074 24 32.0008 24C37.0674 24 41.1741 28.1067 41.1741 33.1733C41.1474 38.1333 37.2541 42.16 32.3208 42.32Z" fill="white"/>
<path d="M23.6528 47.84C19.6261 50.5334 19.6261 54.96 23.6528 57.6267C28.2395 60.6934 35.7595 60.6934 40.3461 57.6267C44.3728 54.9334 44.3728 50.5067 40.3461 47.84C35.7861 44.7734 28.2661 44.7734 23.6528 47.84Z" fill="white"/>
</svg>
