<svg width="64" height="64" viewBox="0 0 64 64" fill="none" xmlns="http://www.w3.org/2000/svg">
<path d="M55.8654 11.0133C55.092 9.89325 54.1054 8.90658 52.9854 8.13325C50.452 6.29325 47.1454 5.33325 43.172 5.33325H20.8254C20.292 5.33325 19.7587 5.35992 19.252 5.41325C10.5054 5.97325 5.33203 11.6533 5.33203 20.8266V43.1733C5.33203 47.1466 6.29203 50.4533 8.13203 52.9866C8.90536 54.1066 9.89203 55.0933 11.012 55.8666C13.1987 57.4666 15.972 58.3999 19.252 58.6132C19.7587 58.6399 20.292 58.6666 20.8254 58.6666H43.172C52.8787 58.6666 58.6654 52.8799 58.6654 43.1733V20.8266C58.6654 16.8533 57.7054 13.5466 55.8654 11.0133ZM49.9987 26.6666C49.9987 27.7599 49.092 28.6666 47.9987 28.6666C46.9054 28.6666 45.9987 27.7599 45.9987 26.6666V20.8266L34.8254 31.9999L45.9987 43.1733V37.3333C45.9987 36.2399 46.9054 35.3333 47.9987 35.3333C49.092 35.3333 49.9987 36.2399 49.9987 37.3333V47.9999C49.9987 48.2666 49.9454 48.5066 49.8387 48.7733C49.6254 49.2533 49.252 49.6533 48.7454 49.8666C48.5054 49.9733 48.2387 50.0266 47.972 50.0266H37.3054C36.212 50.0266 35.3054 49.1199 35.3054 48.0266C35.3054 46.9333 36.212 46.0266 37.3054 46.0266H43.1454L31.9987 34.8266L20.8254 45.9999H26.6654C27.7587 45.9999 28.6654 46.9066 28.6654 47.9999C28.6654 49.0933 27.7587 49.9999 26.6654 49.9999H15.9987C15.732 49.9999 15.4654 49.9466 15.2254 49.8399C14.7454 49.6266 14.3454 49.2533 14.132 48.7466C14.052 48.5066 13.9987 48.2666 13.9987 47.9999V37.3333C13.9987 36.2399 14.9054 35.3333 15.9987 35.3333C17.092 35.3333 17.9987 36.2399 17.9987 37.3333V43.1733L29.172 31.9999L17.9987 20.8266V26.6666C17.9987 27.7599 17.092 28.6666 15.9987 28.6666C14.9054 28.6666 13.9987 27.7599 13.9987 26.6666V15.9999C13.9987 15.7333 14.052 15.4933 14.1587 15.2266C14.372 14.7466 14.7454 14.3466 15.252 14.1333C15.492 14.0533 15.732 13.9999 15.9987 13.9999H26.6654C27.7587 13.9999 28.6654 14.9066 28.6654 15.9999C28.6654 17.0933 27.7587 17.9999 26.6654 17.9999H20.8254L31.9987 29.1733L43.172 17.9999H37.332C36.2387 17.9999 35.332 17.0933 35.332 15.9999C35.332 14.9066 36.2387 13.9999 37.332 13.9999H47.9987C48.2654 13.9999 48.5054 14.0533 48.772 14.1599C49.252 14.3733 49.652 14.7466 49.8654 15.2533C49.9454 15.4933 49.9987 15.7333 49.9987 15.9999V26.6666Z" fill="#3A5FA6"/>
</svg>
