<svg width="64" height="64" viewBox="0 0 64 64" fill="none" xmlns="http://www.w3.org/2000/svg">
<path d="M20.7423 9.32996C21.0367 9.20899 21.3321 9.4469 21.3321 9.76522V46.9829C21.3321 47.2061 21.1831 47.3997 20.9734 47.4764C20.7471 47.5592 20.5404 47.6537 20.3455 47.7601L14.0788 51.3334C9.70547 53.8401 6.10547 51.7601 6.10547 46.6934V20.7467C6.10547 19.0667 7.30547 16.9867 8.7988 16.1334L20.3455 9.52006C20.4721 9.45102 20.6036 9.38693 20.7423 9.32996Z" fill="#3A5FA6"/>
<path d="M39.7219 16.5023C39.8922 16.5866 40 16.7603 40 16.9503V53.8691C40 54.2376 39.615 54.4795 39.283 54.3195L26.283 48.0563C26.11 47.973 26 47.7979 26 47.6059V10.5122C26 10.1414 26.3896 9.89959 26.7219 10.0642L39.7219 16.5023Z" fill="#3A5FA6"/>
<path d="M58.668 17.3067V43.2533C58.668 44.9333 57.468 47.0133 55.9746 47.8667L45.4166 53.9176C45.0833 54.1087 44.668 53.868 44.668 53.4838V16.397C44.668 16.2175 44.7642 16.0517 44.9201 15.9628L50.6946 12.6667C55.068 10.16 58.668 12.24 58.668 17.3067Z" fill="#3A5FA6"/>
</svg>
