<svg width="64" height="64" viewBox="0 0 64 64" fill="none" xmlns="http://www.w3.org/2000/svg">
<path d="M31.9987 5.33325C25.012 5.33325 19.332 11.0133 19.332 17.9999C19.332 24.8533 24.692 30.3999 31.6787 30.6399C31.892 30.6133 32.1054 30.6133 32.2654 30.6399C32.3187 30.6399 32.3454 30.6399 32.3987 30.6399C32.4254 30.6399 32.4254 30.6399 32.452 30.6399C39.2787 30.3999 44.6387 24.8533 44.6654 17.9999C44.6654 11.0133 38.9854 5.33325 31.9987 5.33325Z" fill="white"/>
<path d="M45.5467 37.7333C38.1067 32.7733 25.9734 32.7733 18.48 37.7333C15.0934 40 13.2267 43.0666 13.2267 46.3466C13.2267 49.6266 15.0934 52.6666 18.4534 54.9066C22.1867 57.4133 27.0934 58.6666 32 58.6666C36.9067 58.6666 41.8134 57.4133 45.5467 54.9066C48.9067 52.64 50.7734 49.6 50.7734 46.2933C50.7467 43.0133 48.9067 39.9733 45.5467 37.7333Z" fill="white"/>
</svg>
