<svg width="64" height="64" viewBox="0 0 64 64" fill="none" xmlns="http://www.w3.org/2000/svg">
<path d="M32.0016 58.4799C18.5616 58.4799 7.60156 47.5466 7.60156 34.08V29.0666C7.60156 28.0266 8.4549 27.2 9.46823 27.2C10.4816 27.2 11.3349 28.0533 11.3349 29.0666V34.08C11.3349 45.4666 20.5882 54.72 31.9749 54.72C43.3616 54.72 52.6149 45.4666 52.6149 34.08V29.0666C52.6149 28.0266 53.4682 27.2 54.4816 27.2C55.4949 27.2 56.3482 28.0533 56.3482 29.0666V34.08C56.4016 47.5466 45.4416 58.4799 32.0016 58.4799Z" fill="#3A5FA6"/>
<path d="M32.001 5.33325C23.041 5.33325 15.7344 12.6399 15.7344 21.5999V34.1066C15.7344 43.0666 23.041 50.3732 32.001 50.3732C40.961 50.3732 48.2677 43.0666 48.2677 34.1066V21.5999C48.2677 12.6399 40.961 5.33325 32.001 5.33325ZM37.8144 28.2399C37.6277 28.9599 36.961 29.4399 36.241 29.4399C36.1077 29.4399 35.9477 29.4133 35.8144 29.3866C33.0944 28.6399 30.2144 28.6399 27.4944 29.3866C26.6144 29.6266 25.7344 29.1199 25.4944 28.2399C25.2544 27.3866 25.761 26.4799 26.641 26.2399C29.921 25.3333 33.3877 25.3333 36.6677 26.2399C37.5477 26.4799 38.0544 27.3599 37.8144 28.2399ZM40.081 20.8533C39.841 21.5199 39.2277 21.9199 38.561 21.9199C38.3744 21.9199 38.1877 21.8933 38.001 21.8133C33.921 20.3199 29.441 20.3199 25.361 21.8133C24.5077 22.1333 23.5744 21.7066 23.2544 20.8533C22.961 20.0266 23.3877 19.0933 24.241 18.7733C29.041 17.0399 34.321 17.0399 39.0944 18.7733C39.9477 19.0933 40.3744 20.0266 40.081 20.8533Z" fill="#3A5FA6"/>
</svg>
