<svg width="172" height="56" viewBox="0 0 172 56" fill="none" xmlns="http://www.w3.org/2000/svg">
<g clip-path="url(#clip0_310_958)">
<path d="M56.8987 20.4112V18.0038C58.5258 18.1608 59.6805 18.2131 60.4153 18.2131C60.9402 18.2131 61.3601 18.2131 61.675 18.1084C61.9899 18.0561 62.1998 17.9514 62.3048 17.8467C62.4098 17.7421 62.5148 17.5851 62.5148 17.428C62.5673 17.271 62.5673 17.0094 62.5673 16.6953C62.5673 16.2766 62.5148 15.9626 62.4623 15.8056C62.4098 15.6486 62.3048 15.4916 62.1474 15.4393C61.9899 15.3346 61.675 15.2823 61.3076 15.2299L59.1031 14.9159C58.1059 14.7589 57.4235 14.3925 57.0561 13.7645C56.6887 13.1365 56.5312 12.1944 56.5312 11.043C56.5312 9.8916 56.7412 9.00188 57.1086 8.42618C57.476 7.79814 58.0009 7.43179 58.6832 7.22244C59.3656 7.0131 60.2053 6.90842 61.2026 6.90842C62.4623 6.90842 63.7745 7.06543 65.0866 7.32712V9.68226C63.8794 9.52525 62.8297 9.47291 61.8849 9.47291C60.8877 9.47291 60.2578 9.57758 59.9954 9.73459C59.8379 9.83927 59.733 9.94394 59.6805 10.1009C59.628 10.258 59.628 10.5196 59.628 10.886C59.628 11.2523 59.628 11.514 59.6805 11.7234C59.733 11.8804 59.7854 11.9851 59.9429 12.0897C60.1004 12.1421 60.3103 12.2467 60.6777 12.2991L63.0396 12.6131C63.5645 12.7178 63.9844 12.8224 64.3518 13.0318C64.7192 13.2411 64.9817 13.5552 65.1916 13.9738C65.454 14.5495 65.6115 15.3869 65.6115 16.486C65.6115 17.7421 65.454 18.7365 65.0866 19.3645C64.7192 19.9925 64.2468 20.4112 63.617 20.6206C62.9872 20.8299 62.1998 20.9346 61.2026 20.9346C59.628 20.7252 58.2108 20.6206 56.8987 20.4112Z" fill="#1B2C4D"/>
<path d="M67.5547 8.32151V5.86169H70.494V8.32151H67.5547ZM67.5547 20.5682V10.4673H70.4415V20.5682H67.5547Z" fill="#1B2C4D"/>
<path d="M76.5828 20.4112C76.1629 20.2019 75.7955 19.8355 75.5855 19.3645H75.428L75.3231 20.5682H72.5938V5.86169H75.4805V11.514H75.638C75.9004 11.043 76.2153 10.729 76.5828 10.572C77.0027 10.3626 77.475 10.3103 78.1049 10.3103C78.8397 10.3103 79.4171 10.4673 79.837 10.7813C80.2569 11.0953 80.5718 11.6187 80.7292 12.4037C80.9392 13.1365 80.9917 14.1832 80.9917 15.5439C80.9917 16.9047 80.8867 17.9514 80.7292 18.6841C80.5193 19.4168 80.2044 19.9402 79.7845 20.2542C79.3646 20.5682 78.7872 20.7252 78.0524 20.7252C77.5275 20.7252 77.0027 20.6206 76.5828 20.4112ZM77.79 18.1084C77.9474 18.0037 78.0524 17.7944 78.1049 17.428C78.1574 17.0617 78.2099 16.4337 78.2099 15.5439C78.2099 14.6542 78.1574 13.9738 78.1049 13.6598C78.0524 13.2935 77.9474 13.0841 77.79 12.9795C77.6325 12.8748 77.3176 12.8224 76.8452 12.8224C76.5303 12.8224 76.2678 12.8748 76.1104 12.9271C75.9529 13.0318 75.7955 13.1365 75.743 13.3458C75.638 13.5552 75.5855 13.8168 75.5855 14.1832C75.533 14.5495 75.533 14.9682 75.533 15.5439C75.533 16.5907 75.5855 17.3234 75.743 17.6897C75.8479 17.8991 75.9529 18.0561 76.1104 18.1608C76.2678 18.2654 76.5303 18.2654 76.8452 18.2654C77.2651 18.2654 77.58 18.2131 77.79 18.1084Z" fill="#1B2C4D"/>
<path d="M90.8578 16.329H85.5041C85.5041 17.0617 85.5566 17.5327 85.6091 17.7944C85.7141 18.0561 85.8715 18.2654 86.1864 18.3178C86.5014 18.4224 87.0262 18.4748 87.761 18.4748C88.3384 18.4748 89.2307 18.4224 90.5429 18.3178V20.4112C90.123 20.5159 89.6506 20.5682 88.9682 20.6206C88.3384 20.6729 87.7086 20.7252 87.0787 20.7252C85.714 20.7252 84.7168 20.5682 84.0869 20.2019C83.4571 19.8355 83.0372 19.3645 82.8797 18.6318C82.7223 17.9514 82.6173 16.9047 82.6173 15.4916C82.6173 14.1309 82.7223 13.0841 82.8797 12.4038C83.0372 11.7234 83.4571 11.2 84.0345 10.8337C84.6118 10.4673 85.5566 10.3103 86.8688 10.3103C88.1285 10.3103 89.0732 10.4673 89.5981 10.8337C90.1754 11.1477 90.4904 11.671 90.6478 12.3514C90.8053 13.0318 90.8578 14.0785 90.8578 15.5439V16.329ZM85.924 12.6654C85.7665 12.7701 85.6091 12.9271 85.5566 13.2411C85.5041 13.5028 85.4516 13.9738 85.4516 14.6542H88.076C88.076 13.9738 88.0235 13.5028 87.971 13.2411C87.9185 12.9795 87.761 12.7701 87.6036 12.6654C87.4461 12.5608 87.1312 12.5608 86.7638 12.5608C86.3964 12.5084 86.1339 12.5608 85.924 12.6654Z" fill="#1B2C4D"/>
<path d="M92.75 10.4673H95.4793L95.5843 12.1944H95.7418C96.0042 11.514 96.3191 10.9907 96.739 10.729C97.1589 10.4673 97.7888 10.3103 98.5236 10.3103V13.0841C97.7888 13.0841 97.2114 13.1888 96.7915 13.3982C96.3716 13.6075 96.1092 13.9215 95.8992 14.3925C95.6893 14.8636 95.6368 15.5439 95.6368 16.3813V20.5682H92.75V10.4673Z" fill="#1B2C4D"/>
<path d="M99.9375 8.32151V5.86169H102.877V8.32151H99.9375ZM99.9375 20.5682V10.4673H102.824V20.5682H99.9375Z" fill="#1B2C4D"/>
<path d="M105.185 19.9925C104.765 19.5215 104.555 18.7365 104.555 17.6897C104.555 16.9047 104.66 16.2767 104.817 15.858C104.975 15.3869 105.29 15.0729 105.709 14.8636C106.129 14.6542 106.707 14.5496 107.494 14.5496C108.071 14.5496 108.859 14.6019 109.908 14.6542V14.2355C109.908 13.7122 109.856 13.2935 109.751 13.0841C109.646 12.8748 109.488 12.7178 109.174 12.6654C108.911 12.6131 108.386 12.5608 107.704 12.5608C106.759 12.5608 105.919 12.6131 105.08 12.7178V10.6243C106.182 10.415 107.389 10.3103 108.596 10.3103C109.803 10.3103 110.696 10.4673 111.273 10.729C111.85 10.9907 112.27 11.4094 112.428 11.9851C112.638 12.5608 112.69 13.3458 112.69 14.4449V20.5682H109.961L109.856 19.3645H109.698C109.436 19.8879 109.069 20.2542 108.649 20.4112C108.229 20.6206 107.704 20.6729 107.127 20.6729C106.287 20.7253 105.604 20.4636 105.185 19.9925ZM109.226 18.3701C109.383 18.3178 109.541 18.1608 109.646 18.0038C109.803 17.7421 109.856 17.271 109.856 16.643V16.2243H108.334C108.019 16.2243 107.809 16.2767 107.651 16.329C107.494 16.3813 107.441 16.486 107.389 16.643C107.337 16.8 107.284 17.0617 107.284 17.4281C107.284 17.7421 107.337 17.9514 107.389 18.1084C107.441 18.2654 107.546 18.3701 107.704 18.4225C107.861 18.4748 108.124 18.5271 108.491 18.5271C108.806 18.4748 109.069 18.4748 109.226 18.3701Z" fill="#1B2C4D"/>
<path d="M120.302 15.1776C120.302 14.3925 120.302 13.8168 120.25 13.5028C120.197 13.1888 120.092 12.9795 119.935 12.9271C119.778 12.8748 119.515 12.8224 119.095 12.8224C118.675 12.8224 118.413 12.8748 118.203 13.0318C118.045 13.1888 117.888 13.3981 117.836 13.7645C117.783 14.0785 117.731 14.6542 117.731 15.4393V20.6729H114.844V10.4673H117.573L117.678 11.671H117.836C118.255 10.7813 119.095 10.3103 120.407 10.3103C121.195 10.3103 121.772 10.4673 122.139 10.729C122.507 10.9907 122.769 11.4094 122.927 11.9327C123.084 12.4561 123.137 13.1888 123.137 14.1309V20.6206H120.25V15.1776H120.302Z" fill="#1B2C4D"/>
<path d="M57.5268 23.9177H62.828C64.0352 23.9177 64.875 24.2317 65.3999 24.8074C65.9248 25.3831 66.1872 26.2205 66.1872 27.3196C66.1872 28.2616 66.0297 28.9944 65.6623 29.5177C65.3474 30.0411 64.7701 30.4074 64.0352 30.5645V30.6691C64.9275 30.8261 65.5049 31.1925 65.8198 31.7682C66.1347 32.3439 66.2922 33.0766 66.2922 34.0187C66.2922 35.1177 66.0297 36.0074 65.5049 36.6355C64.98 37.2635 64.0352 37.5775 62.6706 37.5775H57.4219V23.9177H57.5268ZM64.0877 29.4131C64.4551 29.0467 64.6651 28.471 64.6651 27.6859C64.6651 27.1102 64.6126 26.6392 64.4551 26.3252C64.3502 26.0112 64.0877 25.7495 63.7728 25.5925C63.4579 25.4355 62.9855 25.3831 62.4081 25.3831H59.1539V29.9888H62.4081C63.143 29.9364 63.7203 29.7794 64.0877 29.4131ZM64.2452 35.6411C64.5601 35.2747 64.7176 34.6467 64.7176 33.757C64.7176 32.8673 64.5601 32.2392 64.1927 31.8729C63.8778 31.5065 63.2479 31.3495 62.4081 31.3495H59.049V36.1645H62.4081C63.3529 36.1645 63.9303 36.0074 64.2452 35.6411Z" fill="#1B2C4D"/>
<path d="M75.1666 36.1643H75.0616C74.8517 36.6877 74.5368 37.054 74.0644 37.368C73.592 37.6297 72.9622 37.7867 72.1224 37.7867C71.2826 37.7867 70.6002 37.6297 70.1803 37.368C69.7605 37.1063 69.4455 36.6877 69.2881 36.1643C69.1306 35.6409 69.0781 34.8559 69.0781 33.8615V27.4764H70.6002V33.2858C70.6002 34.2278 70.6527 34.9082 70.7577 35.3269C70.8627 35.7456 71.0726 36.0073 71.3351 36.1643C71.5975 36.3213 72.0699 36.3736 72.7522 36.3736C73.487 36.3736 74.0119 36.2166 74.3268 35.9549C74.6417 35.6933 74.8517 35.3269 74.9567 34.8035C75.0616 34.3325 75.0616 33.5998 75.0616 32.7101V27.4764H76.5838V37.5774H75.2191L75.1666 36.1643Z" fill="#1B2C4D"/>
<path d="M79.5234 24.5458V22.8187H81.1505V24.5458H79.5234ZM79.5759 37.5776V27.4767H81.098V37.5776H79.5759Z" fill="#1B2C4D"/>
<path d="M84.0859 37.5776V22.8711H85.6081V37.5776H84.0859Z" fill="#1B2C4D"/>
<path d="M89.4941 37.2636C89.0217 36.9495 88.7068 36.4785 88.4968 35.7458C88.2869 35.0131 88.2344 33.9664 88.2344 32.5533C88.2344 31.1402 88.3393 30.0935 88.4968 29.3608C88.7068 28.6281 89.0217 28.1047 89.4941 27.7907C89.9664 27.4767 90.6488 27.3196 91.5411 27.3196C92.2759 27.3196 92.9057 27.4243 93.3781 27.6337C93.8505 27.843 94.2179 28.2094 94.4278 28.7327H94.5328V22.871H96.0549V37.5776H94.6903L94.6378 36.1645H94.5328C94.3229 36.7925 93.9555 37.1589 93.4306 37.4206C92.9582 37.6299 92.3284 37.7346 91.5935 37.7346C90.6488 37.7346 89.9664 37.5776 89.4941 37.2636ZM93.4831 36.1122C93.798 35.9552 94.0604 35.6411 94.1654 35.2748C94.2704 34.9608 94.3229 34.5944 94.3754 34.1757C94.4278 33.757 94.4278 33.1813 94.4278 32.4486C94.4278 31.8729 94.4278 31.4019 94.3754 31.0355C94.3229 30.6692 94.2704 30.3552 94.2179 30.0935C94.0604 29.6224 93.8505 29.2561 93.4831 29.0467C93.1157 28.8374 92.6433 28.7327 92.0134 28.7327C91.2786 28.7327 90.7538 28.8374 90.4388 28.9944C90.1239 29.1514 89.914 29.5178 89.809 29.9888C89.704 30.5122 89.6515 31.3496 89.6515 32.5533C89.6515 33.757 89.704 34.5944 89.809 35.1178C89.914 35.6411 90.1239 35.9552 90.4388 36.1122C90.7538 36.2692 91.2786 36.3738 92.0134 36.3738C92.6958 36.3738 93.1682 36.2692 93.4831 36.1122Z" fill="#1B2C4D"/>
<path d="M98.9414 24.5458V22.8187H100.569V24.5458H98.9414ZM98.9414 37.5776V27.4767H100.464V37.5776H98.9414Z" fill="#1B2C4D"/>
<path d="M109.491 31.7159C109.491 30.7738 109.439 30.0935 109.334 29.6748C109.229 29.2561 109.019 28.9944 108.757 28.8897C108.494 28.7327 108.022 28.6804 107.339 28.6804C106.605 28.6804 106.08 28.8374 105.765 29.0991C105.45 29.3608 105.24 29.7271 105.135 30.2505C105.03 30.7215 105.03 31.4542 105.03 32.3439V37.5776H103.508V27.4767H104.872L104.977 28.8897H105.082C105.292 28.3664 105.607 28 106.08 27.686C106.552 27.4243 107.182 27.2673 108.074 27.2673C108.914 27.2673 109.596 27.4243 110.016 27.686C110.436 27.9477 110.751 28.3664 110.908 28.8897C111.066 29.4131 111.118 30.1981 111.118 31.1925V37.5776H109.596V31.7159H109.491Z" fill="#1B2C4D"/>
<path d="M114.109 41.3981V40.1944C115.159 40.2467 116.104 40.2991 116.943 40.2991C117.836 40.2991 118.518 40.1944 118.885 40.0374C119.305 39.8281 119.568 39.514 119.673 39.043C119.778 38.572 119.883 37.7869 119.883 36.6879V36.3215H119.778C119.568 36.8449 119.253 37.1589 118.78 37.4206C118.308 37.6299 117.731 37.7346 116.996 37.7346C116.104 37.7346 115.369 37.5776 114.896 37.2636C114.424 36.9495 114.109 36.4785 113.899 35.7458C113.689 35.0131 113.637 33.9664 113.637 32.5533C113.637 31.1402 113.742 30.0935 113.899 29.3608C114.109 28.6281 114.424 28.1047 114.896 27.7907C115.369 27.4766 116.051 27.3196 116.943 27.3196C117.626 27.3196 118.256 27.4243 118.728 27.6337C119.253 27.843 119.62 28.2617 119.83 28.8897H119.935L120.04 27.4767H121.405V36.2168C121.405 37.6299 121.3 38.729 121.142 39.4617C120.932 40.1944 120.565 40.7178 119.988 41.0841C119.41 41.4505 118.518 41.6075 117.311 41.6075C116.051 41.6075 115.001 41.5028 114.109 41.3981ZM118.885 36.0598C119.2 35.8505 119.463 35.5888 119.568 35.1701C119.673 34.8561 119.725 34.5421 119.778 34.1234C119.83 33.757 119.83 33.1813 119.83 32.5009C119.83 31.8729 119.83 31.3495 119.778 30.9832C119.725 30.6168 119.673 30.2505 119.62 29.9888C119.463 29.5178 119.253 29.2038 118.885 28.9944C118.57 28.7851 118.098 28.6804 117.468 28.6804C116.733 28.6804 116.209 28.7851 115.894 28.9421C115.579 29.0991 115.369 29.4654 115.264 29.9365C115.159 30.4598 115.106 31.2972 115.106 32.5009C115.106 33.7047 115.159 34.5421 115.264 35.0654C115.369 35.5888 115.579 35.9028 115.894 36.0598C116.209 36.2168 116.733 36.3215 117.468 36.3215C118.098 36.3215 118.57 36.2168 118.885 36.0598Z" fill="#1B2C4D"/>
<path d="M138.361 37.5776L135.58 26.5346H135.475L132.693 37.5776H130.751L127.602 23.9701H129.229L131.748 35.4841H131.853L134.635 23.9701H136.419L139.254 35.4841H139.359L141.826 23.9701H143.4L140.303 37.5776H138.361Z" fill="#1B2C4D"/>
<path d="M152.111 33.0243H146.022C146.022 34.071 146.075 34.8038 146.18 35.2224C146.285 35.6935 146.547 36.0075 146.914 36.1645C147.282 36.3215 147.964 36.4262 148.856 36.4262C149.696 36.4262 150.641 36.3738 151.743 36.2168V37.4206C151.376 37.5252 150.903 37.5776 150.326 37.6299C149.749 37.6823 149.119 37.7346 148.542 37.7346C147.334 37.7346 146.442 37.5776 145.865 37.2636C145.287 36.9495 144.92 36.4262 144.762 35.7458C144.605 35.0654 144.5 33.9664 144.5 32.5533C144.5 31.1402 144.605 30.0935 144.762 29.3608C144.92 28.6804 145.287 28.157 145.865 27.7907C146.442 27.4766 147.334 27.2673 148.542 27.2673C149.696 27.2673 150.484 27.4243 151.008 27.7383C151.533 28.0524 151.848 28.5757 151.953 29.2561C152.111 29.9365 152.163 30.9832 152.163 32.4486V33.0243H152.111ZM146.809 28.8374C146.495 28.9944 146.285 29.3084 146.18 29.7271C146.075 30.1458 146.022 30.8785 146.022 31.8729H150.641V31.6636C150.641 30.7215 150.589 30.0411 150.431 29.6224C150.326 29.2038 150.116 28.8897 149.801 28.7851C149.486 28.6281 149.066 28.5757 148.437 28.5757C147.702 28.5757 147.177 28.6804 146.809 28.8374Z" fill="#1B2C4D"/>
<path d="M161.928 33.0243H155.892C155.892 34.0711 155.944 34.8038 156.049 35.2225C156.154 35.6935 156.416 36.0075 156.784 36.1645C157.151 36.3215 157.834 36.4262 158.726 36.4262C159.566 36.4262 160.51 36.3739 161.613 36.2169V37.4206C161.245 37.5253 160.773 37.5776 160.195 37.63C159.618 37.6823 158.988 37.7346 158.463 37.7346C157.256 37.7346 156.364 37.5776 155.787 37.2636C155.209 36.9496 154.842 36.4262 154.684 35.7458C154.527 35.0655 154.422 33.9664 154.422 32.5533C154.422 31.1402 154.527 30.0935 154.684 29.3608C154.842 28.6804 155.209 28.1571 155.787 27.7907C156.364 27.4767 157.256 27.2673 158.463 27.2673C159.618 27.2673 160.405 27.4243 160.93 27.7384C161.455 28.0524 161.77 28.5757 161.875 29.2561C162.032 29.9365 162.085 30.9832 162.085 32.4486V33.0243H161.928ZM156.679 28.8374C156.364 28.9944 156.154 29.3085 156.049 29.7271C155.944 30.1458 155.892 30.8786 155.892 31.8729H160.51V31.6636C160.51 30.7215 160.458 30.0412 160.3 29.6225C160.195 29.2038 159.985 28.8898 159.671 28.7851C159.356 28.6281 158.936 28.5757 158.306 28.5757C157.519 28.5757 156.994 28.6804 156.679 28.8374Z" fill="#1B2C4D"/>
<path d="M170.268 37.5776L167.224 33.129H166.069V37.5776H164.547V22.8711H166.069V31.8206H167.224L170.268 27.4767H171.895L168.431 32.344L171.948 37.5776H170.268Z" fill="#1B2C4D"/>
<path d="M30.4453 24.5983V23.1329L35.5366 20.8301V26.7441L30.4453 24.5983Z" fill="#CB2A44"/>
<path d="M20.5224 19.3645L0 9.94392V31.8206L14.119 38.2579V45.7421L0 39.357V46.6841L20.5224 56V33.8093L6.50839 27.4243V20.2019L20.5224 26.5869V19.3645Z" fill="#CB2A44"/>
<path d="M12.282 23.3944V24.3364L7.08575 26.6392V21.1963L12.282 23.3944Z" fill="#CB2A44"/>
<path d="M7.60938 27.2149L12.5432 24.8598L20.5212 28.314V33.0766L7.60938 27.2149Z" fill="#CB2A44"/>
<path d="M42.7228 9.62991L21.2031 19.2075V56L42.7228 46.4224V31.8206L38.3664 29.8318L42.7228 24.0224V9.62991ZM36.1619 41.9215L27.5541 45.7944V38.1533L36.1619 34.2804V41.9215ZM36.1619 27.4766L27.5541 31.3495V23.7084L36.1619 19.8878V27.4766Z" fill="#1B2C4D"/>
<path d="M30.4453 37.5776V38.9907L35.5366 41.2935V35.2748L30.4453 37.5776Z" fill="#CB2A44"/>
<path d="M28.1836 40.4037L30.1256 39.5663L35.0594 41.7644L28.1836 44.8523V40.4037Z" fill="#CB2A44"/>
<path d="M5.71916 36.5308L0.417969 38.8859L13.4872 44.7999V40.0373L5.71916 36.5308Z" fill="#CB2A44"/>
<path d="M28.1836 25.9065L30.1256 25.1215L34.8494 27.2149L28.1836 30.4075V25.9065Z" fill="#CB2A44"/>
<path d="M21.5197 0L42.1996 9.4729L35.0088 12.6654L26.401 11.8804L27.8706 15.8056L20.6799 18.9981L0 9.52523L7.19072 6.33271L21.7296 12.7701L21.7821 12.6131L21.3097 9.42056L27.4507 9.00187L14.329 3.19252L21.5197 0Z" fill="#1B2C4D"/>
<path d="M14.3281 3.55888V8.11215L20.8365 10.886L20.5216 9.00187L25.9278 8.74018L14.3281 3.55888Z" fill="#CB2A44"/>
<path d="M26.9258 12.4037L33.9066 12.9794L28.1855 15.5439L26.9258 12.4037Z" fill="#CB2A44"/>
<path d="M59.9918 43.7009C60.2017 43.8056 60.4641 43.9626 60.6741 44.172L60.2542 44.6953C60.0967 44.5383 59.9393 44.4336 59.7818 44.3813C59.6244 44.329 59.4669 44.2766 59.2569 44.2766C58.3647 44.2766 57.8923 45.114 57.8923 46.8411C57.8923 48.5159 58.3647 49.4056 59.2569 49.4056C59.4669 49.4056 59.6244 49.3533 59.7818 49.3009C59.9393 49.2486 60.0967 49.0916 60.2542 48.9346L60.7266 49.4056C60.5691 49.6149 60.3067 49.772 60.0967 49.8766C59.8868 49.9813 59.5719 50.086 59.2569 50.086C58.5746 50.086 58.0497 49.8243 57.6298 49.2486C57.21 48.6729 57 47.8878 57 46.8411C57 46.1084 57.105 45.5327 57.2624 45.0617C57.4724 44.5906 57.7348 44.2243 58.0497 43.9626C58.3647 43.7533 58.7321 43.5963 59.152 43.5963C59.4669 43.5963 59.7293 43.5963 59.9918 43.7009Z" fill="#1B2C4D"/>
<path d="M64.5047 49.929H63.7174V47.6785C63.7174 46.9981 63.7699 46.4748 63.8748 46.0561L62.2477 49.929H61.3555V45.114H62.1428V47.3645C62.1428 47.9925 62.0903 48.5682 61.9853 48.9869L63.6124 45.114H64.5047V49.929Z" fill="#1B2C4D"/>
<path d="M68.7586 46.0037C69.021 46.3701 69.1785 46.9458 69.1785 47.6262C69.1785 48.4635 69.021 49.0392 68.7061 49.4056C68.3912 49.772 67.9713 49.9813 67.3939 49.9813C66.1867 49.9813 65.6094 49.0393 65.6094 47.2598C65.6094 46.5271 65.6619 45.9514 65.7668 45.5327C65.8718 45.114 66.0293 44.7477 66.2392 44.486C66.4492 44.2243 66.7641 44.0149 67.184 43.8056C67.4989 43.6486 67.7089 43.5439 67.8663 43.4916C68.0238 43.4392 68.1812 43.3346 68.3912 43.1776L68.7586 43.7009C68.4962 43.9103 68.0763 44.1196 67.5514 44.3813C67.289 44.486 67.079 44.643 66.974 44.7477C66.8691 44.8523 66.7116 45.0617 66.6591 45.3234C66.5541 45.585 66.5017 45.8991 66.5017 46.3178C66.7641 45.7421 67.184 45.4804 67.7613 45.4804C68.1288 45.428 68.4437 45.6374 68.7586 46.0037ZM67.8663 49.2486C67.9713 49.1439 68.0763 48.9869 68.1812 48.7252C68.2862 48.4635 68.2862 48.0972 68.2862 47.6262C68.2862 47.0505 68.2337 46.6318 68.0763 46.4224C67.9188 46.1607 67.7613 46.0561 67.4989 46.0561C67.289 46.0561 67.079 46.1607 66.9216 46.3178C66.7641 46.4748 66.6066 46.7364 66.4492 47.0505V47.5738C66.4492 48.7776 66.7641 49.4056 67.3939 49.4056C67.5514 49.4056 67.7089 49.3533 67.8663 49.2486Z" fill="#1B2C4D"/>
<path d="M73.376 49.929H72.5887V47.6785C72.5887 46.9981 72.6412 46.4748 72.7461 46.0561L71.119 49.929H70.2267V45.114H71.0141V47.3645C71.0141 47.9925 70.9616 48.5682 70.8566 48.9869L72.4837 45.114H73.376V49.929Z" fill="#1B2C4D"/>
<path d="M77.734 45.6898C77.9964 46.1085 78.1014 46.7365 78.1014 47.5215C78.1014 48.3066 77.9439 48.9346 77.6815 49.3533C77.419 49.8243 77.0516 50.0337 76.5268 50.0337C76.1069 50.0337 75.7919 49.8767 75.5295 49.5103V51.7608L74.7422 51.8655V45.1664H75.4245L75.477 45.7944C75.7919 45.3234 76.1593 45.0617 76.6842 45.0617C77.1041 45.0617 77.4715 45.2711 77.734 45.6898ZM76.9991 48.9346C77.1566 48.6206 77.2091 48.1496 77.2091 47.5215C77.2091 46.8412 77.1566 46.3701 76.9991 46.1085C76.8942 45.7944 76.6842 45.6898 76.4218 45.6898C76.0544 45.6898 75.7394 45.8991 75.477 46.3701V48.8299C75.687 49.1963 76.0019 49.4056 76.3168 49.4056C76.6317 49.4056 76.8942 49.2486 76.9991 48.9346Z" fill="#1B2C4D"/>
<path d="M81.354 45.1663C81.5639 45.271 81.7214 45.3757 81.9313 45.5327L81.5639 46.0037C81.4065 45.8991 81.3015 45.7944 81.144 45.742C80.9866 45.6897 80.8816 45.6374 80.7241 45.6374C80.0943 45.6374 79.7794 46.2654 79.7794 47.5215C79.7794 48.1495 79.8843 48.6206 80.0418 48.9346C80.1993 49.1963 80.4617 49.3533 80.7766 49.3533C80.9341 49.3533 81.0915 49.3009 81.1965 49.2486C81.3015 49.1963 81.459 49.0916 81.6164 48.9869L81.9838 49.4579C81.6164 49.8243 81.1965 49.9813 80.7766 49.9813C80.1993 49.9813 79.7794 49.772 79.4644 49.3533C79.1495 48.9346 78.9921 48.3065 78.9921 47.5215C78.9921 46.7364 79.1495 46.1084 79.4644 45.6374C79.7794 45.1663 80.1993 44.957 80.7766 44.957C80.9341 45.0617 81.144 45.0617 81.354 45.1663Z" fill="#1B2C4D"/>
<path d="M85.8177 45.1663L84.663 47.3644L85.9751 49.9289H85.1354L84.0331 47.7308H83.5607V49.9289H82.7734V45.114H83.5607V47.1028H84.0331L85.0304 45.1663H85.8177Z" fill="#1B2C4D"/>
<path d="M89.3836 49.3009C89.4361 49.4056 89.4886 49.4579 89.646 49.5103L89.4886 50.086C89.2786 50.0336 89.0687 49.9813 88.9637 49.8766C88.8062 49.772 88.7538 49.6149 88.7013 49.4056C88.4388 49.8766 88.0714 50.086 87.5466 50.086C87.1267 50.086 86.8117 49.929 86.6018 49.6673C86.3918 49.4056 86.2344 49.0392 86.2344 48.6206C86.2344 48.0972 86.3918 47.7308 86.7068 47.4692C87.0217 47.2075 87.4941 47.0505 88.0714 47.0505H88.5438V46.5794C88.5438 46.2654 88.4913 46.0561 88.3339 45.8991C88.2289 45.742 88.0189 45.6897 87.7565 45.6897C87.4416 45.6897 87.0742 45.7944 86.6543 45.9514L86.4443 45.3757C86.9167 45.1663 87.3891 45.0617 87.809 45.0617C88.2814 45.0617 88.6488 45.2187 88.9112 45.4804C89.1736 45.7421 89.2786 46.1084 89.2786 46.5794V48.9346C89.3311 49.0916 89.3311 49.1963 89.3836 49.3009ZM88.4913 48.6729V47.5738H88.1239C87.7565 47.5738 87.4416 47.6785 87.2841 47.8355C87.1267 47.9925 87.0217 48.2542 87.0217 48.5682C87.0217 48.8822 87.0742 49.0916 87.1791 49.2486C87.2841 49.4056 87.4416 49.4579 87.6515 49.4579C88.0189 49.4579 88.3339 49.1963 88.4913 48.6729Z" fill="#1B2C4D"/>
<path d="M93.4785 45.1664V49.9813H92.6912V48.1495H91.8514L91.0116 49.9813H90.1718L91.1166 47.8878C90.8541 47.7832 90.6967 47.5738 90.5917 47.4168C90.4867 47.2075 90.4342 46.9458 90.4342 46.6318C90.4342 46.1607 90.5917 45.7944 90.9066 45.5327C91.2216 45.271 91.6414 45.1664 92.2188 45.1664H93.4785ZM92.6912 47.4692V45.7421H92.2188C91.9039 45.7421 91.6939 45.7944 91.5365 45.9514C91.379 46.0561 91.3265 46.3178 91.3265 46.5794C91.3265 46.8935 91.379 47.1028 91.5365 47.2598C91.6939 47.4168 91.9039 47.4692 92.2188 47.4692H92.6912Z" fill="#1B2C4D"/>
<path d="M98.94 45.1663C99.15 45.271 99.3075 45.3757 99.5174 45.5327L99.15 46.0037C98.9925 45.899 98.8876 45.7944 98.7301 45.742C98.5726 45.6897 98.4677 45.6374 98.3102 45.6374C97.6804 45.6374 97.3654 46.2654 97.3654 47.5215C97.3654 48.1495 97.4704 48.6205 97.6279 48.9346C97.7853 49.1962 98.0478 49.3532 98.3627 49.3532C98.5201 49.3532 98.6776 49.3009 98.7826 49.2486C98.8876 49.1962 99.045 49.0916 99.2025 48.9869L99.5699 49.4579C99.2025 49.8243 98.7826 49.9813 98.3627 49.9813C97.7853 49.9813 97.3654 49.7719 97.0505 49.3532C96.7356 48.9346 96.5781 48.3065 96.5781 47.5215C96.5781 46.7364 96.7356 46.1084 97.0505 45.6374C97.3654 45.1663 97.7853 44.957 98.3627 44.957C98.5201 45.0617 98.7301 45.0617 98.94 45.1663Z" fill="#1B2C4D"/>
<path d="M103.082 45.1663L102.977 45.8467H101.77V49.9813H100.982V45.8467H99.7227V45.1663H103.082Z" fill="#1B2C4D"/>
<path d="M106.757 45.6897C107.02 46.1084 107.125 46.7364 107.125 47.5215C107.125 48.3065 106.967 48.9346 106.705 49.3533C106.442 49.772 106.075 50.0336 105.55 50.0336C105.13 50.0336 104.815 49.8766 104.553 49.5103V51.7607L103.766 51.8654V45.1664H104.448L104.5 45.7944C104.815 45.3234 105.183 45.0617 105.708 45.0617C106.128 45.0617 106.495 45.271 106.757 45.6897ZM106.023 48.9346C106.18 48.6206 106.233 48.1495 106.233 47.5215C106.233 46.8411 106.18 46.3701 106.023 46.1084C105.918 45.7944 105.708 45.6897 105.445 45.6897C105.078 45.6897 104.763 45.8991 104.5 46.3701V48.8299C104.71 49.1963 105.025 49.4056 105.34 49.4056C105.655 49.4056 105.865 49.2486 106.023 48.9346Z" fill="#1B2C4D"/>
<path d="M111.062 45.6897C111.377 46.1084 111.534 46.7364 111.534 47.5738C111.534 48.3589 111.377 48.9346 111.062 49.4056C110.747 49.8766 110.274 50.086 109.749 50.086C109.225 50.086 108.752 49.8766 108.437 49.4056C108.122 48.9346 107.965 48.3589 107.965 47.5738C107.965 46.7888 108.122 46.1607 108.437 45.7421C108.752 45.3234 109.172 45.114 109.749 45.114C110.327 45.114 110.747 45.271 111.062 45.6897ZM109.015 46.1084C108.857 46.4224 108.752 46.8935 108.752 47.5215C108.752 48.2019 108.857 48.6729 109.015 48.9346C109.172 49.2486 109.435 49.3533 109.749 49.3533C110.064 49.3533 110.327 49.1963 110.484 48.9346C110.642 48.6206 110.747 48.1495 110.747 47.5215C110.747 46.8411 110.642 46.3701 110.484 46.1084C110.327 45.8467 110.064 45.6897 109.749 45.6897C109.382 45.6897 109.172 45.8467 109.015 46.1084Z" fill="#1B2C4D"/>
<path d="M115.786 49.929H114.999V47.6785C114.999 46.9981 115.051 46.4748 115.156 46.0561L113.529 49.929H112.637V45.114H113.424V47.3645C113.424 47.9925 113.372 48.5682 113.267 48.9869L114.894 45.114H115.786V49.929Z" fill="#1B2C4D"/>
<path d="M119.828 45.1664L119.723 45.8467H118.516V49.9813H117.728V45.8467H116.469V45.1664H119.828Z" fill="#1B2C4D"/>
<path d="M123.394 47.8358H120.875C120.875 48.4115 120.98 48.8302 121.137 49.0395C121.295 49.3012 121.557 49.4059 121.872 49.4059C122.082 49.4059 122.24 49.3535 122.397 49.3012C122.555 49.2488 122.712 49.1442 122.869 48.9872L123.237 49.4582C122.817 49.8246 122.345 50.0339 121.82 50.0339C121.242 50.0339 120.822 49.8246 120.508 49.4059C120.193 48.9872 120.035 48.3591 120.035 47.5741C120.035 46.789 120.193 46.161 120.508 45.69C120.822 45.2189 121.242 45.0096 121.767 45.0096C122.292 45.0096 122.712 45.2189 122.974 45.5853C123.237 46.004 123.394 46.5797 123.394 47.3647C123.394 47.5217 123.394 47.6788 123.394 47.8358ZM122.607 47.1554C122.607 46.632 122.555 46.2657 122.397 46.004C122.24 45.7423 122.03 45.6376 121.715 45.6376C121.452 45.6376 121.242 45.7423 121.085 46.004C120.927 46.2657 120.822 46.632 120.822 47.2077H122.607V47.1554Z" fill="#1B2C4D"/>
<path d="M127.279 45.1663V49.9813H126.492V45.8467H125.389L125.232 47.8878C125.179 48.4112 125.127 48.8299 125.074 49.0916C125.022 49.3533 124.917 49.5626 124.759 49.6673C124.602 49.7719 124.392 49.9289 124.077 50.086L123.867 49.4579C124.025 49.4056 124.13 49.3009 124.235 49.1962C124.287 49.0916 124.34 48.9346 124.392 48.7775C124.445 48.5682 124.445 48.3065 124.497 47.8355L124.654 45.1663H127.279Z" fill="#1B2C4D"/>
<path d="M131.216 47.1028C131.479 47.3645 131.636 47.7832 131.636 48.3065C131.636 48.8299 131.479 49.2486 131.164 49.5103C130.849 49.772 130.482 49.929 129.957 49.929H128.645V45.114H129.432V46.6841H129.799C130.482 46.6841 130.901 46.8411 131.216 47.1028ZM130.587 49.0916C130.744 48.9346 130.796 48.6729 130.796 48.3065C130.796 47.9925 130.744 47.7308 130.587 47.5738C130.429 47.4168 130.219 47.3121 129.852 47.3121H129.432V49.3009H129.904C130.167 49.3009 130.429 49.2486 130.587 49.0916Z" fill="#1B2C4D"/>
<path d="M134.841 49.9289V47.7831H133.319V49.9289H132.531V45.114H133.319V47.1551H134.841V45.114H135.628V49.9289H134.841Z" fill="#1B2C4D"/>
<path d="M139.825 49.3009C139.877 49.4056 139.93 49.4579 140.087 49.5103L139.93 50.086C139.72 50.0336 139.51 49.9813 139.405 49.8766C139.3 49.772 139.195 49.6149 139.143 49.4056C138.88 49.8766 138.513 50.086 137.988 50.086C137.568 50.086 137.253 49.929 137.043 49.6673C136.833 49.4056 136.676 49.0392 136.676 48.6206C136.676 48.0972 136.833 47.7308 137.148 47.4692C137.463 47.2075 137.935 47.0505 138.513 47.0505H138.985V46.5794C138.985 46.2654 138.933 46.0561 138.775 45.8991C138.67 45.742 138.46 45.6897 138.198 45.6897C137.883 45.6897 137.516 45.7944 137.096 45.9514L136.886 45.3757C137.358 45.1663 137.83 45.0617 138.25 45.0617C138.723 45.0617 139.09 45.2187 139.353 45.4804C139.615 45.7421 139.72 46.1084 139.72 46.5794V48.9346C139.72 49.0916 139.773 49.1963 139.825 49.3009ZM138.933 48.6729V47.5738H138.565C138.198 47.5738 137.883 47.6785 137.726 47.8355C137.568 47.9925 137.463 48.2542 137.463 48.5682C137.463 48.8822 137.516 49.0916 137.621 49.2486C137.726 49.4056 137.883 49.4579 138.093 49.4579C138.46 49.4579 138.775 49.1963 138.933 48.6729Z" fill="#1B2C4D"/>
<path d="M143.918 45.1664V49.9813H143.131V48.1495H142.344L141.504 49.9813H140.664L141.609 47.8878C141.346 47.7832 141.189 47.5738 141.084 47.4168C140.979 47.2075 140.926 46.9458 140.926 46.6318C140.926 46.1607 141.084 45.7944 141.399 45.5327C141.714 45.271 142.134 45.1664 142.711 45.1664H143.918ZM143.131 47.4692V45.7421H142.659C142.344 45.7421 142.134 45.7944 141.976 45.9514C141.819 46.0561 141.766 46.3178 141.766 46.5794C141.766 46.8935 141.819 47.1028 141.976 47.2598C142.134 47.4168 142.344 47.4692 142.659 47.4692H143.131Z" fill="#1B2C4D"/>
<path d="M149.481 49.929V47.7832H147.959V49.929H147.172V45.114H147.959V47.1551H149.481V45.114H150.269V49.929H149.481Z" fill="#1B2C4D"/>
<path d="M154.73 47.8355H152.211C152.211 48.4112 152.316 48.8299 152.473 49.0392C152.631 49.3009 152.893 49.4056 153.208 49.4056C153.418 49.4056 153.576 49.3533 153.733 49.3009C153.89 49.2486 154.048 49.1439 154.205 48.9869L154.573 49.4579C154.153 49.8243 153.681 50.0336 153.156 50.0336C152.578 50.0336 152.158 49.8243 151.843 49.4056C151.529 48.9869 151.371 48.3589 151.371 47.5738C151.371 46.7888 151.529 46.1607 151.843 45.6897C152.158 45.2187 152.578 45.0093 153.103 45.0093C153.628 45.0093 154.048 45.2187 154.31 45.585C154.573 46.0037 154.73 46.5794 154.73 47.3645C154.73 47.5215 154.73 47.6785 154.73 47.8355ZM153.943 47.1551C153.943 46.6318 153.89 46.2654 153.733 46.0037C153.576 45.742 153.366 45.6374 153.051 45.6374C152.788 45.6374 152.578 45.742 152.421 46.0037C152.263 46.2654 152.158 46.6318 152.158 47.2075H153.943V47.1551Z" fill="#1B2C4D"/>
<path d="M158.929 49.3009V51.2897H158.352L158.247 49.929H155.78L155.675 51.2897H155.098V49.3009H155.36C155.465 49.1963 155.57 49.0916 155.623 48.9869C155.675 48.8822 155.727 48.6729 155.78 48.4112C155.832 48.1495 155.885 47.7308 155.885 47.2598L155.99 45.2187H158.509V49.3533H158.929V49.3009ZM157.722 45.7944H156.672L156.62 47.1028C156.567 47.5738 156.567 47.9402 156.515 48.2019C156.462 48.4635 156.41 48.6729 156.305 48.8299C156.2 48.9869 156.095 49.1439 155.937 49.2486H157.722V45.7944Z" fill="#1B2C4D"/>
<path d="M162.969 47.8358H160.449C160.449 48.4115 160.554 48.8302 160.712 49.0395C160.869 49.3012 161.131 49.4059 161.446 49.4059C161.656 49.4059 161.814 49.3535 161.971 49.3012C162.129 49.2488 162.286 49.1442 162.444 48.9872L162.811 49.4582C162.391 49.8246 161.919 50.0339 161.394 50.0339C160.817 50.0339 160.397 49.8246 160.082 49.4059C159.767 48.9872 159.609 48.3591 159.609 47.5741C159.609 46.789 159.767 46.161 160.082 45.69C160.397 45.2189 160.817 45.0096 161.341 45.0096C161.866 45.0096 162.286 45.2189 162.549 45.5853C162.811 46.004 162.969 46.5797 162.969 47.3647C163.021 47.5217 162.969 47.6788 162.969 47.8358ZM162.234 47.1554C162.234 46.632 162.181 46.2657 162.024 46.004C161.866 45.7423 161.656 45.6376 161.341 45.6376C161.079 45.6376 160.869 45.7423 160.712 46.004C160.554 46.2657 160.449 46.632 160.449 47.2077H162.234V47.1554Z" fill="#1B2C4D"/>
<path d="M166.908 45.1664V49.9813H166.121V45.8467H165.018L164.861 47.8878C164.808 48.4112 164.756 48.8299 164.703 49.0916C164.651 49.3533 164.546 49.5626 164.388 49.6673C164.231 49.772 164.021 49.929 163.706 50.086L163.496 49.4579C163.654 49.4056 163.759 49.3009 163.864 49.1963C163.916 49.0916 163.969 48.9346 164.021 48.7776C164.074 48.5682 164.074 48.3065 164.126 47.8355L164.283 45.1664H166.908Z" fill="#1B2C4D"/>
<path d="M171.055 45.1664V49.9813H170.268V48.1495H169.48L168.641 49.9813H167.801L168.746 47.8878C168.483 47.7832 168.326 47.5738 168.221 47.4168C168.116 47.2075 168.063 46.9458 168.063 46.6318C168.063 46.1607 168.221 45.7944 168.536 45.5327C168.851 45.271 169.27 45.1664 169.848 45.1664H171.055ZM170.268 47.4692V45.7421H169.795C169.48 45.7421 169.27 45.7944 169.113 45.9514C168.955 46.0561 168.903 46.3178 168.903 46.5794C168.903 46.8935 168.955 47.1028 169.113 47.2598C169.27 47.4168 169.48 47.4692 169.795 47.4692H170.268Z" fill="#1B2C4D"/>
</g>
<defs>
<clipPath id="clip0_310_958">
<rect width="172" height="56" fill="white"/>
</clipPath>
</defs>
</svg>
