<svg width="226" height="48" viewBox="0 0 226 48" fill="none" xmlns="http://www.w3.org/2000/svg">
<g clip-path="url(#clip0_157_2290)">
<path fill-rule="evenodd" clip-rule="evenodd" d="M225.73 39.1385V47.4462H205.377V43.2H207.597V31.7538H205.377V27.5077H225.545V35.0769H220.734V31.5692H214.628V35.0769H219.069V39.3231H214.628V43.2H220.919V39.3231H225.73V39.1385ZM202.232 47.8154C201.862 47.8154 201.492 48 201.121 48H200.196C199.641 48 199.086 48 198.531 47.8154C198.161 47.6308 197.606 47.4462 197.421 47.2615C197.051 47.0769 196.681 46.7077 196.496 46.3385C196.311 45.9692 195.941 45.4154 195.756 45.0462L193.535 40.0615H191.87V43.2H193.721V47.4462H182.804V43.2H184.839V31.7538H182.804V27.5077H195.386C196.866 27.5077 198.161 27.6923 199.086 28.0615C200.011 28.4308 200.936 28.9846 201.492 29.5385C202.047 30.0923 202.417 30.8308 202.602 31.5692C202.787 32.3077 202.972 33.0461 202.972 33.7846C202.972 34.1538 202.972 34.7077 202.787 35.2615C202.602 35.8154 202.417 36.1846 202.232 36.7385C202.047 37.1077 201.677 37.6615 201.307 38.0308C200.936 38.4 200.381 38.7692 199.826 38.9538L202.232 43.5692L204.637 43.9385V47.6308C204.267 47.8154 203.897 47.8154 203.527 48C202.972 47.8154 202.602 47.8154 202.232 47.8154ZM194.646 32.1231C194.276 31.7538 193.721 31.5692 193.165 31.5692H191.87V35.8154H192.98C193.721 35.8154 194.276 35.6308 194.646 35.2615C195.016 34.8923 195.201 34.3385 195.201 33.4154C195.201 32.8615 195.016 32.4923 194.646 32.1231ZM176.698 31.5692H174.293V43.0154H176.698V47.2615H164.672V43.0154H167.077V31.5692H164.857V35.0769H160.046V27.1385H181.324V35.0769H176.513V31.5692H176.698ZM156.901 47.4462H149.87L145.429 40.6154L142.469 35.8154V43.2H144.319V47.4462H133.773V43.2H135.808V31.7538H133.773V27.5077H143.579L147.094 32.8615L150.425 38.2154H150.61V31.7538H148.575V27.5077H159.121V31.7538H157.086V47.4462H156.901ZM112.31 43.0154H114.53V31.5692H112.31V27.3231H132.477V35.0769H127.667V31.5692H121.746V35.0769H126.187V39.3231H121.746V43.2H128.037V39.3231H132.848V47.6308H112.495V43.0154H112.31ZM104.354 47.8154C102.133 47.8154 100.283 47.4461 98.803 46.8923C97.3228 46.3385 96.2127 45.4154 95.4726 44.4923C94.7325 43.5692 94.1774 42.4615 93.8074 41.1692C93.4373 39.8769 93.4373 38.5846 93.4373 37.2923C93.4373 36 93.6223 34.7077 93.9924 33.4154C94.3624 32.1231 94.9175 31.0154 95.6576 30.0923C96.5827 29.1692 97.6929 28.2461 99.1731 27.6923C100.653 27.1385 102.504 26.7692 104.909 26.7692C106.019 26.7692 106.944 26.7692 107.869 26.9538C108.794 27.1385 109.719 27.3231 110.83 27.5077V34.7077H106.019V31.9385H105.094C104.354 31.9385 103.614 32.1231 103.244 32.3077C102.689 32.4923 102.318 32.8615 101.948 33.4154C101.578 33.7846 101.393 34.3385 101.208 35.0769C101.023 35.6308 101.023 36.3692 101.023 37.1077C101.023 38.2154 101.208 39.1385 101.393 39.8769C101.578 40.6154 101.948 40.9846 102.504 41.3538C102.874 41.7231 103.429 41.9077 104.169 42.0923C104.724 42.0923 105.464 42.2769 106.389 42.2769H107.314C107.684 42.2769 108.054 42.2769 108.609 42.0923C108.979 42.0923 109.534 41.9077 109.904 41.9077C110.275 41.9077 110.83 41.7231 111.015 41.7231L111.94 46.5231C110.83 46.8923 109.719 47.2615 108.239 47.4462C106.759 47.6308 105.649 47.8154 104.354 47.8154ZM85.2962 44.8615C84.3711 45.7846 83.261 46.5231 81.7808 47.0769C80.4856 47.6308 78.8204 47.8154 76.9701 47.8154C75.1199 47.8154 73.4547 47.6308 72.1595 47.0769C70.8643 46.5231 69.5692 45.7846 68.644 44.8615C67.7189 43.9385 66.9788 42.8308 66.6088 41.5385C66.0537 40.2462 65.8687 38.7692 65.8687 37.2923C65.8687 35.8154 66.0537 34.3385 66.6088 33.0461C67.1638 31.7538 67.7189 30.6462 68.644 29.7231C69.5692 28.8 70.6793 28.0615 72.1595 27.5077C73.4547 26.9538 75.1199 26.7692 76.9701 26.7692C78.8204 26.7692 80.4856 26.9538 81.7808 27.5077C83.0759 28.0615 84.3711 28.8 85.2962 29.7231C86.2214 30.6462 86.9615 31.7538 87.3315 33.0461C87.8866 34.3385 88.0716 35.6308 88.0716 37.2923C88.0716 38.7692 87.8866 40.2462 87.3315 41.5385C86.7764 42.6462 86.2214 43.9385 85.2962 44.8615ZM80.1155 34.8923C79.9305 34.1538 79.7455 33.6 79.5605 33.0461C79.3755 32.4923 79.0054 32.1231 78.4503 31.9385C78.0803 31.7538 77.5252 31.5692 76.7851 31.5692C76.045 31.5692 75.675 31.7538 75.1199 31.9385C74.7498 32.3077 74.3798 32.6769 74.0098 33.2308C73.8247 33.7846 73.6397 34.3385 73.4547 35.0769C73.2697 35.8154 73.2696 36.5538 73.2696 37.2923C73.2696 38.2154 73.2697 38.9538 73.4547 39.6923C73.6397 40.4308 73.8247 40.9846 74.0098 41.5385C74.1948 42.0923 74.5648 42.4615 75.1199 42.6462C75.4899 43.0154 76.045 43.0154 76.7851 43.0154C77.5252 43.0154 77.8953 42.8308 78.4503 42.6462C78.8204 42.4615 79.1904 41.9077 79.5605 41.5385C79.7455 40.9846 79.9305 40.4308 80.1155 39.6923C80.3006 38.9538 80.3006 38.2154 80.3006 37.2923C80.3006 36.3692 80.3006 35.6308 80.1155 34.8923ZM63.4634 38.5846C62.9083 39.1385 61.9832 39.6923 61.058 40.0615C60.1329 40.4308 59.0228 40.6154 57.7276 40.6154H54.9522V43.2H57.7276V47.4462H45.701V43.2H47.9213V31.7538H45.701V27.5077H57.3576C58.8377 27.5077 60.1329 27.6923 61.2431 28.0615C62.3532 28.4308 63.0933 28.8 63.6484 29.5385C64.2035 30.0923 64.7585 30.8308 64.9436 31.5692C65.1286 32.3077 65.3136 33.2308 65.3136 34.1538C65.3136 35.0769 65.1286 36 64.7585 36.7385C64.5735 37.2923 64.0184 37.8461 63.4634 38.5846ZM55.6923 31.5692H55.1373V36.3692H55.8774C56.6175 36.3692 57.1725 36.1846 57.3576 35.6308C57.7276 35.2615 57.7276 34.7077 57.7276 33.9692C57.7276 32.4923 57.1725 31.5692 55.6923 31.5692ZM37.745 37.6615L42.3706 43.0154H44.2208V47.4462H31.8242V43.0154H32.9343L30.714 40.2461L28.4938 43.0154H29.6039V47.4462H20.9078V43.0154H22.3879L27.5686 36.5538L23.6831 31.7538H21.2778V27.3231H33.8595V31.7538H32.7493L34.7846 34.3385L36.8198 31.7538H35.5247V27.5077H44.4058V31.7538H42.9257L37.745 37.6615ZM0 43.0154H2.22029V31.5692H0V27.3231H20.1677V35.0769H15.357V31.5692H9.43624V35.0769H13.8768V39.3231H9.43624V43.2H15.7271V39.3231H20.3527V47.6308H0V43.0154Z" fill="white"/>
<path fill-rule="evenodd" clip-rule="evenodd" d="M225.73 16.2461V20.6769H214.813V16.2461H216.293L213.518 12.3692L211.668 13.6615V16.2461H213.518V20.4923H202.602V16.2461H204.822V4.79998H202.602V0.55383H213.888V4.79998H211.853V8.30768L216.293 4.79998H214.813V0.55383H225.175V4.79998H223.139L218.514 8.30768L224.065 16.2461H225.73ZM199.456 19.2C198.716 19.7538 197.606 20.1231 196.311 20.4923C195.016 20.8615 193.535 21.0461 191.685 21.0461C190.39 21.0461 188.91 20.8615 187.43 20.6769C185.949 20.4923 184.469 20.1231 183.174 19.5692V13.6615H187.985V15.6923C188.17 15.6923 188.54 15.8769 188.725 15.8769C189.095 15.8769 189.28 15.8769 189.65 16.0615H191.13C191.685 16.0615 192.055 16.0615 192.425 15.8769C192.795 15.6923 192.98 15.6923 193.165 15.5077C193.35 15.3231 193.535 15.3231 193.535 15.1384V14.7692C193.535 14.4 193.35 14.2154 193.165 14.0308C192.98 13.8461 192.795 13.6615 192.425 13.6615C191.87 13.4769 191.13 13.2923 190.39 13.1077C189.65 12.9231 188.725 12.7384 187.985 12.5538C186.32 12.1846 184.839 11.4461 183.914 10.5231C182.989 9.59998 182.434 8.30768 182.434 6.83075C182.434 5.90768 182.619 4.9846 182.989 4.06152C183.359 3.13845 183.914 2.5846 184.654 1.84614C185.394 1.29229 186.32 0.738446 187.615 0.369215C188.725 -1.59591e-05 190.205 -0.184631 191.87 -0.184631H193.721C194.461 -0.184631 195.016 -1.5974e-05 195.756 -1.5974e-05C196.496 0.184599 197.051 0.184599 197.791 0.369215C198.531 0.55383 199.086 0.738446 199.641 0.923061V6.46152H194.831V4.61537C194.461 4.43075 194.091 4.43075 193.535 4.24614H192.425C191.685 4.24614 190.945 4.43075 190.76 4.61537C190.39 4.79998 190.205 5.16921 190.205 5.53844C190.205 5.72306 190.39 6.09229 190.575 6.27691C190.945 6.46152 191.13 6.64614 191.685 6.83075C192.055 7.01537 192.61 7.19998 192.98 7.19998C193.535 7.3846 193.906 7.3846 194.276 7.56921C195.201 7.75383 196.126 8.12306 197.051 8.30768C197.976 8.67691 198.716 9.04614 199.456 9.41537C200.196 9.96921 200.751 10.5231 201.121 11.2615C201.492 12 201.677 12.7384 201.677 13.6615C201.677 14.7692 201.492 15.6923 201.121 16.4308C200.936 17.9077 200.196 18.6461 199.456 19.2ZM180.029 21.0461C179.659 21.0461 179.289 21.2308 178.919 21.2308H177.993C177.438 21.2308 176.883 21.2308 176.328 21.0461C175.958 20.8615 175.403 20.6769 175.218 20.4923C174.848 20.3077 174.478 19.9384 174.293 19.5692C174.108 19.2 173.738 18.6461 173.553 18.2769L171.333 13.2923H169.667V16.4308H171.518V20.6769H160.601V16.2461H162.636V4.79998H160.601V0.55383H173.183C174.663 0.55383 175.958 0.738446 176.883 1.10768C177.808 1.47691 178.734 2.03075 179.289 2.5846C179.844 3.13845 180.214 3.87691 180.399 4.61537C180.584 5.35383 180.769 6.09229 180.769 6.83075C180.769 7.19998 180.769 7.75383 180.584 8.30768C180.399 8.86152 180.214 9.23075 180.029 9.7846C179.844 10.1538 179.474 10.7077 179.104 11.0769C178.734 11.4461 178.178 11.8154 177.623 12L180.029 16.6154L182.434 16.9846V20.6769C182.064 20.8615 181.694 20.8615 181.324 21.0461C180.954 20.8615 180.399 21.0461 180.029 21.0461ZM172.443 5.16921C172.073 4.79998 171.518 4.61537 170.963 4.61537H169.667V8.86152H170.777C171.518 8.86152 172.073 8.67691 172.443 8.30768C172.813 7.93845 172.998 7.3846 172.998 6.46152C172.998 6.09229 172.813 5.53844 172.443 5.16921ZM147.649 16.2461H149.87V4.79998H147.649V0.55383H159.121V4.79998H156.901V16.2461H159.121V20.4923H147.649V16.2461ZM144.689 19.0154C143.949 19.5692 143.209 19.9384 142.284 20.3077C141.359 20.6769 140.248 20.6769 139.138 20.6769H125.632V16.2461H127.852V4.79998H125.632V0.55383H139.323C140.434 0.55383 141.544 0.738446 142.284 0.923061C143.209 1.10768 143.764 1.66152 144.319 2.03075C144.874 2.5846 145.244 3.13844 145.614 3.87691C145.984 4.43075 146.169 5.35383 146.169 6.09229C146.169 6.27691 146.169 6.64614 145.984 6.83075C145.984 7.19998 145.799 7.56921 145.614 7.93845C145.429 8.30768 145.244 8.67691 144.874 9.04614C144.504 9.41537 144.319 9.59998 143.764 9.96921C144.319 10.1538 144.874 10.5231 145.244 11.0769C145.614 11.4461 145.984 11.8154 146.169 12.3692C146.354 12.7384 146.539 13.2923 146.539 13.6615C146.539 14.0308 146.724 14.4 146.724 14.7692C146.724 15.6923 146.539 16.4308 146.169 17.1692C145.984 17.7231 145.429 18.4615 144.689 19.0154ZM138.213 5.16921C137.843 4.79998 137.473 4.61537 136.918 4.61537H135.068V8.30768H136.918C137.473 8.30768 137.843 8.12306 138.213 7.75383C138.583 7.56921 138.768 7.01537 138.768 6.46152C138.768 5.90768 138.583 5.53844 138.213 5.16921ZM138.768 12.9231C138.398 12.5538 138.028 12.3692 137.288 12.3692H135.068V16.2461H137.103C137.658 16.2461 138.213 16.0615 138.583 15.6923C138.953 15.3231 139.138 14.9538 139.138 14.4C139.138 13.8461 138.953 13.2923 138.768 12.9231ZM112.68 16.2461H114.9V4.79998H112.68V0.55383H124.151V4.79998H122.116V16.2461H124.336V20.4923H112.865V16.2461H112.68ZM109.534 19.2C108.794 19.7538 107.684 20.1231 106.389 20.4923C105.094 20.8615 103.614 21.0461 101.763 21.0461C100.468 21.0461 98.988 20.8615 97.5078 20.6769C96.0276 20.4923 94.5475 20.1231 93.2523 19.5692V13.6615H98.0629V15.6923C98.2479 15.6923 98.618 15.8769 98.803 15.8769C99.1731 15.8769 99.3581 15.8769 99.7281 16.0615H101.208C101.763 16.0615 102.133 16.0615 102.504 15.8769C102.874 15.6923 103.059 15.6923 103.244 15.5077C103.429 15.3231 103.614 15.3231 103.614 15.1384V14.7692C103.614 14.4 103.429 14.2154 103.244 14.0308C103.059 13.8461 102.874 13.6615 102.504 13.6615C101.948 13.4769 101.208 13.2923 100.468 13.1077C99.7281 12.9231 98.803 12.7384 98.0629 12.5538C96.3977 12.1846 94.9175 11.4461 93.9924 10.5231C93.0673 9.59998 92.5122 8.30768 92.5122 6.83075C92.5122 5.90768 92.6972 4.9846 93.0673 4.06152C93.4373 3.13845 93.9924 2.5846 94.7325 1.84614C95.4726 1.29229 96.3977 0.738446 97.6929 0.369215C98.803 -1.59591e-05 100.283 -0.184631 101.948 -0.184631H103.799C104.539 -0.184631 105.094 -1.5974e-05 105.834 -1.5974e-05C106.574 0.184599 107.129 0.184599 107.869 0.369215C108.609 0.55383 109.164 0.738446 109.719 0.923061V6.46152H104.909V4.61537C104.539 4.43075 104.169 4.43075 103.614 4.24614H102.504C101.763 4.24614 101.023 4.43075 100.838 4.61537C100.468 4.79998 100.283 5.16921 100.283 5.53844C100.283 5.72306 100.468 6.09229 100.653 6.27691C101.208 7.19998 101.578 7.3846 102.133 7.3846C102.504 7.56921 103.059 7.75383 103.429 7.75383C103.984 7.93844 104.354 7.93845 104.724 8.12306C105.649 8.30768 106.574 8.67691 107.499 8.86152C108.424 9.23075 109.164 9.59998 109.904 9.96921C110.645 10.5231 111.015 11.0769 111.57 11.8154C111.94 12.5538 112.125 13.2923 112.125 14.2154C112.125 15.3231 111.94 16.2461 111.57 16.9846C111.015 17.9077 110.46 18.6461 109.534 19.2ZM89.3668 17.9077C88.4417 18.8308 87.3315 19.5692 85.8513 20.1231C84.5561 20.6769 82.8909 20.8615 81.0407 20.8615C79.1904 20.8615 77.5252 20.6769 76.23 20.1231C74.9349 19.5692 73.6397 18.8308 72.7146 17.9077C71.7895 16.9846 71.0494 15.8769 70.6793 14.5846C70.1242 13.2923 69.9392 11.8154 69.9392 10.3384C69.9392 8.86152 70.1242 7.3846 70.6793 6.09229C71.2344 4.79998 71.7895 3.69229 72.7146 2.76921C73.6397 1.84614 74.7498 1.10768 76.23 0.55383C77.7102 0.184599 79.3755 -1.5974e-05 81.2257 -1.5974e-05C83.0759 -1.5974e-05 84.7412 0.184599 86.0363 0.738446C87.3315 1.29229 88.6267 2.03075 89.5518 2.95383C90.4769 3.87691 91.217 4.9846 91.5871 6.27691C92.1421 7.56921 92.3272 8.86152 92.3272 10.5231C92.3272 12 92.1421 13.4769 91.5871 14.7692C91.032 15.8769 90.2919 16.9846 89.3668 17.9077ZM84.3711 8.12306C84.1861 7.3846 84.0011 6.83075 83.816 6.27691C83.631 5.72306 83.261 5.35383 82.7059 5.16921C82.3358 4.9846 81.7808 4.79998 81.0407 4.79998C80.3006 4.79998 79.9305 4.9846 79.3755 5.16921C79.0054 5.53844 78.6354 5.90768 78.2653 6.46152C78.0803 7.01537 77.8953 7.56921 77.7102 8.30768C77.8953 8.86152 77.7102 9.59998 77.7102 10.3384C77.7102 11.2615 77.7102 12 77.8953 12.7384C78.0803 13.4769 78.2653 14.0308 78.4503 14.5846C78.6354 15.1384 79.0054 15.5077 79.5605 15.6923C79.9305 16.0615 80.4856 16.0615 81.2257 16.0615C81.9658 16.0615 82.3358 15.8769 82.8909 15.6923C83.261 15.5077 83.631 14.9538 84.0011 14.5846C84.1861 14.0308 84.3711 13.4769 84.5561 12.7384C84.7412 12 84.7412 11.2615 84.7412 10.3384C84.5561 9.59998 84.5561 8.86152 84.3711 8.12306ZM63.2783 20.4923H54.2121L48.1063 4.79998H46.6261V0.55383H57.1725V4.79998H55.5073L57.1725 9.59998L58.8377 15.1384H59.0228L60.688 9.7846L62.3532 4.9846H60.503V0.55383H70.8643V4.79998H69.3841L63.2783 20.4923ZM46.2561 14.5846C45.701 15.8769 45.1459 16.9846 44.2208 17.9077C43.2957 18.8308 42.1856 19.5692 40.7054 20.1231C39.4102 20.6769 37.745 20.8615 35.8947 20.8615C34.0445 20.8615 32.3793 20.6769 31.0841 20.1231C29.7889 19.5692 28.4938 18.8308 27.5686 17.9077C26.6435 16.9846 25.9034 15.8769 25.5334 14.5846C24.9783 13.2923 24.7933 11.8154 24.7933 10.3384C24.7933 8.86152 24.9783 7.3846 25.5334 6.09229C26.0884 4.79998 26.6435 3.69229 27.5686 2.76921C28.4938 1.84614 29.6039 1.10768 31.0841 0.55383C32.5643 0.184599 34.0445 -1.5974e-05 35.8947 -1.5974e-05C37.745 -1.5974e-05 39.4102 0.184599 40.7054 0.738446C42.0005 1.29229 43.2957 2.03075 44.2208 2.95383C45.1459 3.87691 45.886 4.9846 46.2561 6.27691C46.8112 7.56921 46.9962 8.86152 46.9962 10.5231C46.9962 12 46.8112 13.2923 46.2561 14.5846ZM39.2252 8.12306C39.0401 7.3846 38.8551 6.83075 38.6701 6.27691C38.4851 5.72306 38.115 5.35383 37.5599 5.16921C37.1899 4.9846 36.6348 4.79998 35.8947 4.79998C35.1546 4.79998 34.7846 4.9846 34.2295 5.16921C33.8595 5.53844 33.4894 5.90768 33.3044 6.46152C33.1194 7.01537 32.9343 7.56921 32.7493 8.30768C32.5643 9.04614 32.5643 9.7846 32.5643 10.5231C32.5643 11.4461 32.5643 12.1846 32.7493 12.9231C32.9343 13.6615 33.1194 14.2154 33.3044 14.7692C33.4894 15.3231 33.8595 15.6923 34.4145 15.8769C34.7846 16.2461 35.3397 16.2461 36.0798 16.2461C36.8199 16.2461 37.1899 16.0615 37.745 15.8769C38.115 15.6923 38.4851 15.1384 38.8551 14.7692C39.0401 14.2154 39.2252 13.6615 39.4102 12.9231C39.5952 12.1846 39.5952 11.4461 39.5952 10.5231C39.2252 9.59998 39.2252 8.86152 39.2252 8.12306ZM23.3131 20.4923H16.2821L11.8416 13.8461L8.69615 8.86152V16.2461H10.7314V20.4923H0V16.2461H2.03527V4.79998H0V0.55383H9.80629L13.3218 5.90768L16.6522 11.2615V4.79998H14.6169V0.55383H25.1633V4.79998H23.128V20.4923H23.3131Z" fill="#9DAECF"/>
</g>
<defs>
<clipPath id="clip0_157_2290">
<rect width="225.73" height="48" fill="white"/>
</clipPath>
</defs>
</svg>
