<svg width="0" height="0" class="hidden">
  <symbol xmlns="http://www.w3.org/2000/svg" viewBox="0 0 20 20" id="ic_arr_ver">
    <path d="M14.1666 7.64166C14.0105 7.48646 13.7993 7.39934 13.5791 7.39934C13.359 7.39934 13.1478 7.48646 12.9916 7.64166L9.99998 10.5917L7.04998 7.64166C6.89384 7.48646 6.68263 7.39934 6.46248 7.39934C6.24232 7.39934 6.03111 7.48646 5.87498 7.64166C5.79687 7.71913 5.73488 7.8113 5.69257 7.91285C5.65026 8.0144 5.62848 8.12332 5.62848 8.23333C5.62848 8.34334 5.65026 8.45226 5.69257 8.55381C5.73488 8.65536 5.79687 8.74753 5.87498 8.825L9.40831 12.3583C9.48578 12.4364 9.57795 12.4984 9.6795 12.5407C9.78105 12.583 9.88997 12.6048 9.99998 12.6048C10.11 12.6048 10.2189 12.583 10.3205 12.5407C10.422 12.4984 10.5142 12.4364 10.5916 12.3583L14.1666 8.825C14.2448 8.74753 14.3067 8.65536 14.3491 8.55381C14.3914 8.45226 14.4131 8.34334 14.4131 8.23333C14.4131 8.12332 14.3914 8.0144 14.3491 7.91285C14.3067 7.8113 14.2448 7.71913 14.1666 7.64166Z" fill="currentColor"></path>
  </symbol>
  <symbol xmlns="http://www.w3.org/2000/svg" viewBox="0 0 16 31" id="ic_arrow_ver">
    <path d="M9.16177 29.6132L15.3676 23.2817C16.0076 22.6272 16.0076 21.5741 15.3634 20.922C14.7191 20.272 13.6802 20.2741 13.0402 20.9263L9.64177 24.3931V2.40188C9.64177 1.48092 8.90577 0.733398 7.99697 0.733398C7.09031 0.733398 6.35644 1.48092 6.35644 2.40188V24.3931L2.9559 20.9263C2.3159 20.2741 1.27697 20.272 0.632703 20.922C0.310569 21.2492 0.148438 21.6759 0.148438 22.1051C0.148438 22.5297 0.310572 22.9565 0.628438 23.2817L6.83431 29.6132C7.14364 29.9274 7.56177 30.1051 7.99697 30.1051C8.43431 30.1051 8.85244 29.9274 9.16177 29.6132Z" fill="currentColor"></path>
  </symbol>
  <symbol xmlns="http://www.w3.org/2000/svg" viewBox="0 0 20 20" id="ic_arrs_hor">
    <path d="M7.0491 6.90831C6.89218 6.74697 6.6776 6.65457 6.45255 6.65145C6.22751 6.64832 6.01044 6.73472 5.8491 6.89164C5.68776 7.04856 5.59537 7.26315 5.59224 7.48819C5.58912 7.71324 5.67552 7.9303 5.83244 8.09164L7.78244 9.99998L5.83244 11.9083C5.75433 11.9858 5.69233 12.0779 5.65003 12.1795C5.60772 12.281 5.58594 12.39 5.58594 12.5C5.58594 12.61 5.60772 12.7189 5.65003 12.8205C5.69233 12.922 5.75433 13.0142 5.83244 13.0916C5.90991 13.1698 6.00207 13.2317 6.10362 13.2741C6.20517 13.3164 6.31409 13.3381 6.4241 13.3381C6.53411 13.3381 6.64303 13.3164 6.74458 13.2741C6.84613 13.2317 6.9383 13.1698 7.01577 13.0916L9.51577 10.5916C9.59388 10.5142 9.65587 10.422 9.69818 10.3205C9.74049 10.2189 9.76227 10.11 9.76227 9.99998C9.76227 9.88997 9.74049 9.78105 9.69818 9.6795C9.65587 9.57795 9.59388 9.48578 9.51577 9.40831L7.0491 6.90831ZM14.1324 9.40831L11.6324 6.90831C11.4755 6.75139 11.2627 6.66323 11.0408 6.66323C10.8189 6.66323 10.606 6.75139 10.4491 6.90831C10.2922 7.06523 10.204 7.27806 10.204 7.49998C10.204 7.7219 10.2922 7.93472 10.4491 8.09164L12.3658 9.99998L10.4491 11.9083C10.371 11.9858 10.309 12.0779 10.2667 12.1795C10.2244 12.281 10.2026 12.39 10.2026 12.5C10.2026 12.61 10.2244 12.7189 10.2667 12.8205C10.309 12.922 10.371 13.0142 10.4491 13.0916C10.5266 13.1698 10.6187 13.2317 10.7203 13.2741C10.8218 13.3164 10.9308 13.3381 11.0408 13.3381C11.1508 13.3381 11.2597 13.3164 11.3612 13.2741C11.4628 13.2317 11.555 13.1698 11.6324 13.0916L14.1324 10.5916C14.2128 10.5164 14.2774 10.426 14.3226 10.3256C14.3678 10.2253 14.3926 10.1169 14.3957 10.0069C14.3988 9.8969 14.3801 9.78736 14.3406 9.68461C14.3012 9.58187 14.2417 9.48796 14.1658 9.40831H14.1324Z" fill="currentColor"></path>
  </symbol>
  <symbol xmlns="http://www.w3.org/2000/svg" viewBox="0 0 20 20" id="ic_calendar">
    <path d="M6.90833 5.24167C6.55833 5.24167 6.28333 4.95833 6.28333 4.61667V2.29167C6.28333 1.95 6.55833 1.66667 6.90833 1.66667C7.25833 1.66667 7.53333 1.95 7.53333 2.29167V4.60834C7.53333 4.95833 7.25833 5.24167 6.90833 5.24167Z" fill="currentColor"></path>
    <path d="M13.0917 5.24167C12.7417 5.24167 12.4667 4.95833 12.4667 4.61667V2.29167C12.4667 1.94167 12.75 1.66667 13.0917 1.66667C13.4417 1.66667 13.7167 1.95 13.7167 2.29167V4.60834C13.7167 4.95833 13.4417 5.24167 13.0917 5.24167Z" fill="currentColor"></path>
    <path d="M16.3083 3.75C15.7583 3.34167 14.9667 3.73333 14.9667 4.425V4.50833C14.9667 5.48333 14.2667 6.38333 13.2917 6.48333C12.1667 6.6 11.2167 5.71667 11.2167 4.61667V3.75C11.2167 3.29167 10.8417 2.91667 10.3833 2.91667H9.61668C9.15834 2.91667 8.78334 3.29167 8.78334 3.75V4.61667C8.78334 5.275 8.44168 5.85833 7.92501 6.18333C7.85001 6.23333 7.76668 6.275 7.68334 6.31667C7.60834 6.35833 7.52501 6.39167 7.43334 6.41667C7.33334 6.45 7.22501 6.475 7.10834 6.48333C6.97501 6.5 6.84168 6.5 6.70834 6.48333C6.59168 6.475 6.48334 6.45 6.38334 6.41667C6.30001 6.39167 6.21668 6.35833 6.13334 6.31667C6.05001 6.275 5.96668 6.23333 5.89168 6.18333C5.36668 5.81667 5.03334 5.18333 5.03334 4.50833V4.425C5.03334 3.78333 4.35001 3.4 3.80834 3.675C3.80001 3.68333 3.79168 3.68333 3.78334 3.69167C3.75001 3.70833 3.72501 3.725 3.69168 3.75C3.66668 3.775 3.63334 3.79167 3.60834 3.81667C3.37501 4 3.16668 4.20833 2.99168 4.43333C2.90001 4.53333 2.82501 4.64167 2.75834 4.75C2.75001 4.75833 2.74168 4.76667 2.73334 4.78333C2.65834 4.89167 2.59168 5.01667 2.53334 5.13333C2.51668 5.15 2.50834 5.15833 2.50834 5.175C2.45834 5.275 2.40834 5.375 2.37501 5.48333C2.35001 5.525 2.34168 5.55833 2.32501 5.6C2.27501 5.725 2.24168 5.85 2.20834 5.975C2.17501 6.09167 2.15001 6.21667 2.13334 6.34167C2.11668 6.43333 2.10834 6.525 2.10001 6.625C2.09168 6.74167 2.08334 6.85833 2.08334 6.975V14.275C2.08334 16.5167 3.90001 18.3333 6.14168 18.3333H13.8583C16.1 18.3333 17.9167 16.5167 17.9167 14.275V6.975C17.9167 5.65 17.2833 4.49167 16.3083 3.75ZM10 13.5417H8.59168V15C8.59168 15.3417 8.30834 15.625 7.96668 15.625C7.61668 15.625 7.34168 15.3417 7.34168 15V13.5417H5.83334C5.49168 13.5417 5.20834 13.2583 5.20834 12.9167C5.20834 12.575 5.49168 12.2917 5.83334 12.2917H7.34168V10.8333C7.34168 10.4917 7.61668 10.2083 7.96668 10.2083C8.30834 10.2083 8.59168 10.4917 8.59168 10.8333V12.2917H10C10.3417 12.2917 10.625 12.575 10.625 12.9167C10.625 13.2583 10.3417 13.5417 10 13.5417Z" fill="currentColor"></path>
  </symbol>
  <symbol xmlns="http://www.w3.org/2000/svg" viewBox="0 0 40 40" id="ic_close">
    <path d="M20.0002 3.3335C10.8335 3.3335 3.3335 10.8335 3.3335 20.0002C3.3335 29.1668 10.8335 36.6668 20.0002 36.6668C29.1668 36.6668 36.6668 29.1668 36.6668 20.0002C36.6668 10.8335 29.1668 3.3335 20.0002 3.3335ZM26.1668 23.8335C26.8335 24.5002 26.8335 25.5002 26.1668 26.1668C25.5002 26.8335 24.5002 26.8335 23.8335 26.1668L20.0002 22.3335L16.1668 26.1668C15.5002 26.8335 14.5002 26.8335 13.8335 26.1668C13.1668 25.5002 13.1668 24.5002 13.8335 23.8335L17.6668 20.0002L13.8335 16.1668C13.1668 15.5002 13.1668 14.5002 13.8335 13.8335C14.5002 13.1668 15.5002 13.1668 16.1668 13.8335L20.0002 17.6668L23.8335 13.8335C24.5002 13.1668 25.5002 13.1668 26.1668 13.8335C26.8335 14.5002 26.8335 15.5002 26.1668 16.1668L22.3335 20.0002L26.1668 23.8335Z" fill="currentColor"></path>
  </symbol>
  <symbol xmlns="http://www.w3.org/2000/svg" viewBox="0 0 24 24" id="ic_close2">
    <path d="M13.41 11.9999L19.71 5.70994C19.8983 5.52164 20.0041 5.26624 20.0041 4.99994C20.0041 4.73364 19.8983 4.47825 19.71 4.28994C19.5217 4.10164 19.2663 3.99585 19 3.99585C18.7337 3.99585 18.4783 4.10164 18.29 4.28994L12 10.5899L5.71 4.28994C5.5217 4.10164 5.2663 3.99585 5 3.99585C4.7337 3.99585 4.4783 4.10164 4.29 4.28994C4.1017 4.47825 3.99591 4.73364 3.99591 4.99994C3.99591 5.26624 4.1017 5.52164 4.29 5.70994L10.59 11.9999L4.29 18.2899C4.19627 18.3829 4.12188 18.4935 4.07111 18.6154C4.02034 18.7372 3.9942 18.8679 3.9942 18.9999C3.9942 19.132 4.02034 19.2627 4.07111 19.3845C4.12188 19.5064 4.19627 19.617 4.29 19.7099C4.38296 19.8037 4.49356 19.8781 4.61542 19.9288C4.73728 19.9796 4.86799 20.0057 5 20.0057C5.13201 20.0057 5.26272 19.9796 5.38458 19.9288C5.50644 19.8781 5.61704 19.8037 5.71 19.7099L12 13.4099L18.29 19.7099C18.383 19.8037 18.4936 19.8781 18.6154 19.9288C18.7373 19.9796 18.868 20.0057 19 20.0057C19.132 20.0057 19.2627 19.9796 19.3846 19.9288C19.5064 19.8781 19.617 19.8037 19.71 19.7099C19.8037 19.617 19.8781 19.5064 19.9289 19.3845C19.9797 19.2627 20.0058 19.132 20.0058 18.9999C20.0058 18.8679 19.9797 18.7372 19.9289 18.6154C19.8781 18.4935 19.8037 18.3829 19.71 18.2899L13.41 11.9999Z" fill="currentColor"></path>
  </symbol>
  <symbol xmlns="http://www.w3.org/2000/svg" viewBox="0 0 40 40" id="ic_link_arrow">
    <path d="M29.8667 11.0333C29.6976 10.6261 29.3739 10.3025 28.9667 10.1333C28.7663 10.0479 28.5511 10.0026 28.3334 10H11.6667C11.2247 10 10.8007 10.1756 10.4882 10.4882C10.1756 10.8007 10 11.2246 10 11.6667C10 12.1087 10.1756 12.5326 10.4882 12.8452C10.8007 13.1577 11.2247 13.3333 11.6667 13.3333H24.3167L10.4834 27.15C10.3271 27.3049 10.2031 27.4893 10.1185 27.6924C10.0339 27.8955 9.99036 28.1133 9.99036 28.3333C9.99036 28.5534 10.0339 28.7712 10.1185 28.9743C10.2031 29.1774 10.3271 29.3617 10.4834 29.5167C10.6383 29.6729 10.8226 29.7969 11.0257 29.8815C11.2288 29.9661 11.4467 30.0097 11.6667 30.0097C11.8867 30.0097 12.1045 29.9661 12.3076 29.8815C12.5107 29.7969 12.6951 29.6729 12.85 29.5167L26.6667 15.6833V28.3333C26.6667 28.7754 26.8423 29.1993 27.1548 29.5118C27.4674 29.8244 27.8913 30 28.3334 30C28.7754 30 29.1993 29.8244 29.5119 29.5118C29.8244 29.1993 30 28.7754 30 28.3333V11.6667C29.9974 11.4489 29.9521 11.2337 29.8667 11.0333Z" fill="currentColor"></path>
  </symbol>
  <symbol xmlns="http://www.w3.org/2000/svg" viewBox="0 0 20 20" id="ic_location">
    <path fill-rule="evenodd" clip-rule="evenodd" d="M13.8349 12.5417L10.0016 16.3751L6.16828 12.5417C5.60335 11.9768 5.17061 11.2937 4.90117 10.5415C4.63172 9.78938 4.53226 8.98688 4.60994 8.19172C4.68813 7.38431 4.94475 6.60435 5.36125 5.90826C5.77776 5.21216 6.34374 4.61731 7.01828 4.16672C7.9024 3.57942 8.9402 3.26613 10.0016 3.26613C11.063 3.26613 12.1008 3.57942 12.9849 4.16672C13.6574 4.61557 14.2222 5.20779 14.6386 5.90084C15.055 6.59388 15.3127 7.37055 15.3933 8.17505C15.4735 8.97291 15.3753 9.77862 15.1058 10.5338C14.8362 11.2891 14.4022 11.9749 13.8349 12.5417ZM7.91822 5.63204C8.53491 5.21999 9.25993 5.00005 10.0016 5.00005C10.9955 5.00226 11.948 5.39805 12.6508 6.10083C13.3536 6.80362 13.7494 7.75617 13.7516 8.75005C13.7516 9.49173 13.5317 10.2168 13.1196 10.8334C12.7076 11.4501 12.1219 11.9308 11.4367 12.2146C10.7515 12.4984 9.99745 12.5727 9.27002 12.428C8.54259 12.2833 7.87441 11.9262 7.34996 11.4017C6.82551 10.8773 6.46836 10.2091 6.32367 9.48164C6.17897 8.75421 6.25323 8.00021 6.53706 7.31499C6.82089 6.62977 7.30154 6.0441 7.91822 5.63204Z" fill="currentColor"></path>
    <path fill-rule="evenodd" clip-rule="evenodd" d="M15.8026 4.63907C16.5043 5.64096 16.9346 6.80748 17.0516 8.02505C17.1537 9.06643 17.0227 10.1175 16.6681 11.1019C16.3136 12.0864 15.7443 12.9796 15.0016 13.7167L10.6016 18.1417C10.5241 18.2198 10.432 18.2818 10.3304 18.3241C10.2289 18.3664 10.12 18.3882 10.0099 18.3882C9.89993 18.3882 9.79101 18.3664 9.68946 18.3241C9.58791 18.2818 9.49575 18.2198 9.41828 18.1417L5.00161 13.7167C4.25894 12.9796 3.68967 12.0864 3.33509 11.1019C2.9805 10.1175 2.84951 9.06643 2.95161 8.02505C3.05569 6.97681 3.39064 5.96462 3.9324 5.06121C4.47415 4.1578 5.20927 3.38559 6.08494 2.80005C7.10422 2.12385 8.28123 1.72313 9.50137 1.63689C10.7215 1.55065 11.9432 1.78185 13.0474 2.30796C14.1517 2.83408 15.1009 3.63718 15.8026 4.63907ZM10.0016 16.3751L13.8349 12.5417C14.4022 11.9749 14.8362 11.2891 15.1058 10.5338C15.3753 9.77862 15.4735 8.97291 15.3933 8.17505C15.3127 7.37055 15.055 6.59388 14.6386 5.90084C14.2222 5.20779 13.6574 4.61557 12.9849 4.16672C12.1008 3.57942 11.063 3.26613 10.0016 3.26613C8.9402 3.26613 7.9024 3.57942 7.01828 4.16672C6.34374 4.61731 5.77776 5.21216 5.36125 5.90826C4.94475 6.60435 4.68813 7.38431 4.60994 8.19172C4.53226 8.98688 4.63172 9.78938 4.90117 10.5415C5.17061 11.2937 5.60335 11.9768 6.16828 12.5417L10.0016 16.3751Z" fill="currentColor"></path>
  </symbol>
  <symbol xmlns="http://www.w3.org/2000/svg" viewBox="0 0 24 24" id="ic_menu">
    <path d="M20 11H4C3.4 11 3 11.4 3 12C3 12.6 3.4 13 4 13H20C20.6 13 21 12.6 21 12C21 11.4 20.6 11 20 11ZM4 8H20C20.6 8 21 7.6 21 7C21 6.4 20.6 6 20 6H4C3.4 6 3 6.4 3 7C3 7.6 3.4 8 4 8ZM20 16H4C3.4 16 3 16.4 3 17C3 17.6 3.4 18 4 18H20C20.6 18 21 17.6 21 17C21 16.4 20.6 16 20 16Z" fill="currentColor"></path>
  </symbol>
  <symbol xmlns="http://www.w3.org/2000/svg" viewBox="0 0 24 24" id="ic_telegram">
    <rect width="24" height="24" rx="12" fill="currentColor"></rect>
    <path d="M16.8 7.56153L14.9968 16.9756C14.9968 16.9756 14.7445 17.6283 14.0514 17.3152L9.89077 14.0117L9.87148 14.002C10.4335 13.4794 14.7915 9.42179 14.9819 9.23787C15.2768 8.95301 15.0937 8.78343 14.7514 8.99861L8.3141 13.232L5.83061 12.3667C5.83061 12.3667 5.43978 12.2227 5.40218 11.9097C5.36409 11.5961 5.84347 11.4265 5.84347 11.4265L15.9679 7.31356C15.9679 7.31356 16.8 6.93495 16.8 7.56153Z" fill="#fff"></path>
  </symbol>
  <symbol xmlns="http://www.w3.org/2000/svg" viewBox="0 0 180 180" id="ic_video_play">
    <circle cx="90" cy="90" r="88" stroke="currentColor" stroke-width="4" fill="none"></circle>
    <path d="M108.351 82.4997L84.2005 68.6497C82.8937 67.8951 81.4105 67.4998 79.9015 67.5039C78.3925 67.5081 76.9115 67.9115 75.6089 68.6733C74.3062 69.4351 73.2284 70.528 72.4849 71.8411C71.7414 73.1543 71.3586 74.6408 71.3755 76.1497V103.95C71.3755 106.217 72.2763 108.392 73.8798 109.995C75.4832 111.599 77.6579 112.5 79.9255 112.5C81.4266 112.497 82.9008 112.101 84.2005 111.35L108.351 97.4997C109.648 96.7487 110.726 95.6696 111.474 94.3708C112.223 93.072 112.618 91.599 112.618 90.0997C112.618 88.6004 112.223 87.1274 111.474 85.8286C110.726 84.5298 109.648 83.4507 108.351 82.6997V82.4997ZM105.851 92.9747L81.7005 107.025C81.1593 107.331 80.5477 107.493 79.9255 107.493C79.3034 107.493 78.6918 107.331 78.1505 107.025C77.6108 106.713 77.1626 106.265 76.851 105.725C76.5394 105.185 76.3754 104.573 76.3755 103.95V76.0497C76.3754 75.4264 76.5394 74.8141 76.851 74.2744C77.1626 73.7346 77.6108 73.2863 78.1505 72.9747C78.6941 72.6726 79.3038 72.5094 79.9255 72.4997C80.5469 72.5125 81.1559 72.6754 81.7005 72.9747L105.851 86.9247C106.39 87.2362 106.839 87.6844 107.151 88.2242C107.462 88.764 107.627 89.3763 107.627 89.9997C107.627 90.6231 107.462 91.2354 107.151 91.7752C106.839 92.315 106.39 92.7632 105.851 93.0747V92.9747Z" fill="currentColor"></path>
    <path d="M105.851 92.9747L81.7005 107.025C81.1593 107.331 80.5477 107.493 79.9255 107.493C79.3034 107.493 78.6918 107.331 78.1505 107.025C77.6108 106.713 77.1626 106.265 76.851 105.725C76.5394 105.185 76.3754 104.573 76.3755 103.95V76.0497C76.3754 75.4264 76.5394 74.8141 76.851 74.2744C77.1626 73.7346 77.6108 73.2863 78.1505 72.9747C78.6941 72.6726 79.3038 72.5094 79.9255 72.4997C80.5469 72.5125 81.1559 72.6754 81.7005 72.9747L105.851 86.9247C106.39 87.2362 106.839 87.6844 107.151 88.2242C107.462 88.764 107.627 89.3763 107.627 89.9997C107.627 90.6231 107.462 91.2354 107.151 91.7752C106.839 92.315 106.39 92.7632 105.851 93.0747V92.9747Z" fill="currentColor"></path>
  </symbol>
  <symbol xmlns="http://www.w3.org/2000/svg" viewBox="0 0 24 24" id="ic_vk">
    <rect width="24" height="24" rx="12" fill="currentColor"></rect>
    <path d="M12.5895 16.1998C8.0796 16.1998 5.50721 13.0467 5.40002 7.7998H7.65911C7.73332 11.6509 9.39878 13.2821 10.718 13.6184V7.7998H12.8451V11.1211C14.1478 10.9782 15.5165 9.46467 15.9782 7.7998H18.1053C17.9314 8.66325 17.5845 9.4808 17.0866 10.2013C16.5886 10.9218 15.9503 11.5298 15.2114 11.9872C16.0361 12.4051 16.7646 12.9967 17.3487 13.7229C17.9328 14.449 18.3593 15.2932 18.6 16.1998H16.2585C16.0424 15.4124 15.6033 14.7075 14.9961 14.1735C14.3889 13.6395 13.6406 13.3002 12.8451 13.198V16.1998H12.5895Z" fill="#fff"></path>
  </symbol>
</svg>